<?xml version="1.0" encoding="UTF-8"?>
<svg version="1.1" viewBox="0 0 1600 1600" width="1280" height="1280" xmlns="http://www.w3.org/2000/svg">
<path transform="translate(1085,382)" d="m0 0c1 2 1 2 0.44 5-0.15 0.99-0.29 1.98-0.44 3l2 2v4h-2c0.13 1.34 0.13 1.34 0.25 2.7 0.11 1.17 0.21 2.34 0.31 3.55 0.11 1.16 0.21 2.32 0.32 3.52 0.11 2.83-0.02 4.59-0.88 7.23-1.88 6.4-3.35 12.4-3.79 19.1-0.21 1.9-0.21 1.9-1.21 2.9 0.03 1.64 0.03 1.64 0.06 3.31-0.06 3.69-0.06 3.69-1.03 5.58-1.27 2.61-1.41 4.72-1.59 7.61-0.11 1.58-0.11 1.58-0.23 3.19-0.07 1.09-0.14 2.18-0.21 3.31-0.14 2.17-0.28 4.33-0.44 6.5-0.06 0.96-0.12 1.92-0.18 2.91-0.38 2.62-1.15 4.27-2.38 6.59-0.4 2.66-0.74 5.27-1 7.94-0.74 7.42-0.74 7.42-2 10.5-1.51 3.93-1.61 7.92-1.94 12.1-0.79 8.91-2.19 17.4-4.81 26-2.21 7.32-3.16 14.7-4.13 22.2-0.85 6.6-1.99 13-3.36 19.5-2.03 10.1-3.82 20.5-4.45 30.8-0.31 2.01-0.31 2.01-1.27 4.29-1.53 4.02-1.81 8.11-2.25 12.4-0.41 3.5-0.79 5.35-2.79 8.35-0.42 1.94-0.42 1.94-0.56 4.05-0.08 0.78-0.15 1.56-0.23 2.37-0.07 0.81-0.14 1.62-0.21 2.46-0.14 1.6-0.28 3.2-0.44 4.8-0.06 0.71-0.12 1.42-0.18 2.15-0.38 2.17-0.38 2.17-1.34 4.5-1.26 3.23-1.76 6.31-2.29 9.74-0.11 0.67-0.22 1.35-0.32 2.04-0.23 1.43-0.45 2.85-0.66 4.28-0.33 2.14-0.66 4.28-1 6.42-1.12 7.21-2.06 14.4-2.44 21.6-0.36 2.79-1.25 4.96-2.33 7.54-0.39 2.49-0.72 4.99-1 7.5-0.78 6.98-0.78 6.98-2 9.89-1.49 3.88-1.65 7.8-2 11.9-0.45 5.34-1.09 10.3-2.49 15.5-1.08 4.62-1.51 9.36-2.07 14.1-0.25 2.06-0.5 4.12-0.76 6.17-0.1 0.91-0.21 1.81-0.32 2.74-0.36 2.21-0.36 2.21-1.36 4.21-0.09 1.44-0.13 2.88-0.14 4.32-0.02 0.87-0.04 1.73-0.06 2.62-0.03 1.81-0.05 3.62-0.05 5.43-0.19 6.47-1.45 9.76-5.75 14.6-4 2-8.99 1.51-13.2 0.43-1.49-0.5-2.98-1.03-4.46-1.59-2.34-0.86-4.7-1.5-7.11-2.15-6.1-1.8-11.6-4.74-17.2-7.69-3.32-1.73-6.67-2.99-10.2-4.22-1.8-0.78-1.8-0.78-3.8-2.78-1.89-0.75-1.89-0.75-4.06-1.38-4.82-1.52-9.36-3.49-13.9-5.62v-2c-1.13-0.08-2.27-0.16-3.44-0.25-4.24-0.51-7.66-1.94-11.5-3.81-2.02-0.91-3.92-1.47-6.08-1.94v-2c-0.89-0.16-0.89-0.16-1.79-0.33-4.71-0.95-8.1-2.12-12.2-4.67-3.19-0.71-3.19-0.71-6-1-0.15 1.1-0.15 1.1-0.3 2.23-0.79 3.12-1.9 4.68-3.95 7.15-2.28 2.8-4.49 5.6-6.56 8.56-2.19 3.06-2.19 3.06-4.19 5.06-0.68 1.39-0.68 1.39-1.38 2.81-1.58 3.12-3.42 5.49-5.62 8.19-0.71 1.31-1.39 2.64-2 4h-2c-0.27 0.58-0.55 1.17-0.83 1.77-1.15 2.19-2.41 4.02-3.92 5.98-0.53 0.69-1.06 1.39-1.61 2.11-0.81 1.06-0.81 1.06-1.64 2.14-1.02 1.35-2.04 2.71-3.06 4.06-0.49 0.65-0.98 1.3-1.49 1.98-1.45 1.95-2.82 3.95-4.2 5.96-0.74 0.99-1.49 1.98-2.25 3h-2c-0.27 0.57-0.53 1.14-0.8 1.73-3.49 6.61-8.54 11.8-14.2 16.5-3.85 3.4-7.07 7.45-10.4 11.4-1.25 1.41-1.25 1.41-3.63 3.35-2.56 0.12-2.56 0.12-5-1-3.78-4.07-5.99-8.64-8.31-13.6-0.39-0.84-0.78-1.67-1.19-2.53-5.63-12.2-10.1-24.9-13.9-37.9-0.92-3.08-1.8-5.29-3.6-7.99-0.53-2.05-0.53-2.05-0.94-4.31-0.82-3.98-2.21-7.06-4.06-10.7-0.78-2.44-1.48-4.9-2.18-7.37-0.8-2.58-1.77-5.02-2.82-7.51-1.91-4.63-3.13-9.29-4.29-14.2-1.54-6.38-3.54-12.5-5.88-18.7-0.9-2.47-1.71-4.97-2.52-7.48-0.62-1.83-1.25-3.66-1.87-5.49-0.29-0.92-0.57-1.84-0.86-2.8-1.84-5.21-3.43-7.95-8.44-10.5-1.69-0.7-3.41-1.37-5.14-1.99-1.13-0.41-2.26-0.81-3.42-1.23-1.1-0.32-2.2-0.63-3.33-0.96-8.29-2.46-16.5-5.19-24.7-7.93-1.3-0.44-2.61-0.88-3.91-1.31-2.47-0.83-4.93-1.65-7.39-2.48-5.61-1.88-11.2-3.75-16.8-5.6-11-3.61-21.9-7.4-32.7-11.4-5.48-2-11-3.83-16.6-5.47-2.44-0.74-4.77-1.63-7.12-2.64-4.19-1.74-8.39-3.04-12.8-4.19-2.48-0.9-4.2-2.14-6.23-3.81 0.7-3.16 1.55-6.1 3-9 1.94-1.06 1.94-1.06 4-2 0.45-0.64 0.91-1.28 1.38-1.94 2.12-2.69 4.56-3.6 7.62-5.06l1-2c1.67-0.74 3.35-1.47 5.04-2.16 4.43-1.9 8.3-4.35 12.2-7.22 4.04-2.97 8.49-5.01 13-7.2 5.8-2.73 5.8-2.73 9.82-7.42 1.54-0.66 3.11-1.26 4.69-1.81 3.35-1.27 5.92-2.44 8.56-4.88 3.04-2.55 4.85-3.03 8.75-3.31v-2c0.74-0.4 1.47-0.8 2.23-1.21 0.98-0.53 1.95-1.06 2.96-1.6 0.96-0.52 1.92-1.05 2.92-1.58 1.84-1.03 3.68-2.08 5.49-3.17 2.16-1.3 4.34-2.49 6.59-3.63 0.67-0.34 1.35-0.69 2.04-1.04 1.77-0.77 1.77-0.77 3.77-0.77l1-3c2.46-1.16 4.98-1.97 7.55-2.84 2.81-1.33 3.62-2.71 5.45-5.16 2.34-1.12 2.34-1.12 4.94-2 3.96-1.45 3.96-1.45 7.18-4.12 2.13-2.13 3.2-2.36 6.07-3 1.88-0.44 1.88-0.44 3.81-0.88l1-2c3.59-2.67 7.19-4.73 11.4-6.12 0.84-0.29 1.69-0.58 2.56-0.88l1-3c1.11-0.08 2.23-0.16 3.38-0.25 1.19-0.25 2.39-0.5 3.62-0.75 0.28-0.62 0.56-1.25 0.85-1.89 1.69-3.11 3.88-3.48 7.15-4.67 4.8-1.64 4.8-1.64 8-5.44 1.64-0.72 3.32-1.38 5-2 1.4-0.63 2.8-1.27 4.19-1.94 0.67-0.32 1.35-0.63 2.04-0.96 2.09-1.13 2.09-1.13 3.77-4.1 3.62-0.69 3.62-0.69 7-1v-2c3.3-1.72 6.33-3.29 10-4v-2c0.97-0.45 1.94-0.91 2.94-1.38 3.13-1.28 3.13-1.28 4.06-3.62 1.88-0.71 3.77-1.41 5.66-2.08 7.23-2.69 7.23-2.69 12.3-7.92 1.66-0.69 3.33-1.35 5-2 1.68-0.97 3.35-1.97 5-3 1.3-0.74 1.3-0.74 2.62-1.5 2.36-1.34 2.36-1.34 3.82-3.06 1.56-1.44 1.56-1.44 4.62-2.44 3.22-0.76 3.22-0.76 4.94-4 2-0.92 2-0.92 4.44-1.75 5.16-1.94 9.49-4.61 14.1-7.64 2.73-1.77 5.54-3.21 8.48-4.61 1.67-0.99 3.34-1.99 5-3 1.52-0.88 3.04-1.76 4.56-2.62 1.12-0.64 1.12-0.64 2.26-1.29 2.18-1.09 2.18-1.09 4.39-1.55 0.59-0.18 1.18-0.36 1.79-0.54l1-3c1.65-0.7 3.32-1.37 5-2l1-2c2.48-1.1 5.01-1.98 7.55-2.9 2.47-1.11 3.62-2.17 5.45-4.1 1.83-1.06 1.83-1.06 3.81-2 0.7-0.34 1.4-0.68 2.13-1.03 0.68-0.32 1.36-0.64 2.06-0.97 4.09-1.84 4.09-1.84 7.56-4.56 1.95-1.95 3.83-2.61 6.44-3.44h4v-2c0.93-0.43 1.86-0.87 2.81-1.31 3.08-1.41 3.08-1.41 4.6-3.17 1.96-1.87 3.74-2.53 6.28-3.46 3.38-1.28 6.6-2.65 9.81-4.31 3.5-1.75 3.5-1.75 5.5-1.75v-2c8.47-5.03 8.47-5.03 13-6.12 1.49-0.44 1.49-0.44 3-0.88l1-3c1.67-1.1 1.67-1.1 3.75-2.06 0.68-0.32 1.35-0.64 2.05-0.98 1.55-0.67 3.11-1.3 4.7-1.9 2.54-1.08 4.56-2.35 6.81-3.94 2.97-2.03 5.89-3.81 9.13-5.37 3.52-1.49 3.52-1.49 5.56-3.75 2.62-0.12 2.62-0.12 5 0 0.02-0.58 0.04-1.15 0.06-1.75 1.48-3.55 4.65-4.62 7.94-6.25 0.67-0.34 1.34-0.68 2.03-1.04 1.35-0.68 2.7-1.35 4.06-2.01 1.7-0.84 3.34-1.8 4.97-2.76 3.74-1.51 6.08-1.17 9.94-0.19zm-2 25v5l2-2-2-3zm-88.8 45.5c-2.63 1.74-5.34 3.06-8.19 4.43-4.49 2.17-8.23 4.57-12.1 7.68-2.85 2.02-5.92 3.25-9.16 4.52-1.98 0.73-1.98 0.73-2.79 2.86-2 0.84-4.03 1.47-6.09 2.12-2.26 0.84-2.26 0.84-3.91 3.88-2.48 1.36-4.94 2.61-7.5 3.81-5.62 2.72-11 5.59-16.3 8.89-2.71 1.62-5.51 2.99-8.36 4.36-2.09 1.05-2.09 1.05-5 3.06-2.57 1.72-4.96 2.74-7.81 3.88l-1 2c-2.94 2.01-4.39 3-8 3-0.41 0.41-0.83 0.82-1.25 1.25-1.97 1.97-4.09 3.17-6.52 4.51-3.86 2.15-7.65 4.41-11.5 6.65-2.23 1.28-4.46 2.48-6.77 3.59v2c-1 0.24-1.99 0.47-3.02 0.72-4.34 1.24-7.88 3.38-11.7 5.78-1.29 0.8-2.59 1.61-3.88 2.41-0.6 0.36-1.19 0.73-1.81 1.11-1.82 1.1-3.69 2.08-5.62 2.98v2c-0.72 0.1-1.44 0.21-2.19 0.31-3.11 0.76-5.1 2-7.81 3.69-1.69 1.02-3.37 2.04-5.06 3.06-0.84 0.51-1.68 1.02-2.54 1.54-2.1 1.22-4.21 2.34-6.4 3.4v2c-0.58 0.17-1.16 0.34-1.76 0.52-5.04 1.56-8.91 3.39-13.2 6.48-6.49 4.09-13.2 7.73-20 11.3-3.18 1.73-6.24 3.58-9.28 5.54-2.86 1.81-5.82 3.45-8.77 5.12-2.41 1.43-4.81 2.88-7.19 4.36-3.3 1.93-6.7 3.64-10.1 5.33-0.65 0.32-1.29 0.64-1.96 0.97-1.57 0.78-3.15 1.56-4.73 2.34v2c-0.66 0.25-1.32 0.5-2 0.75-5.05 2.1-9.88 4.31-14.2 7.63-4.04 3.02-8.52 5.05-13.1 7.19-2.44 1.31-3.79 2.47-5.67 4.43-1.87 1.06-1.87 1.06-3.88 2-4.17 2.01-8.04 4.26-11.9 6.88-3.27 2.13-6.6 4.03-10 5.9-1.92 1.05-3.82 2.13-5.72 3.22-0.55 0.32-1.11 0.63-1.68 0.96-1.37 0.78-2.74 1.57-4.11 2.36-1.19 0.68-1.19 0.68-2.4 1.37-0.72 0.41-1.45 0.83-2.2 1.26-2.04 1.01-3.88 1.59-6.11 2.05 0.03 1.93 0.03 1.93 1 4 2.66 1.59 2.66 1.59 6.12 2.81 0.67 0.26 1.33 0.51 2.01 0.77 6.68 2.48 13.5 4.5 20.3 6.53 7.8 2.33 15.6 4.8 23.3 7.36 1.91 0.64 3.82 1.26 5.73 1.89 6.76 2.26 13.3 4.76 19.9 7.56 3.39 1.38 6.73 2.35 10.3 3.27 6.17 1.6 6.17 1.6 8.38 3.81h2c0.72 0.16 1.44 0.33 2.19 0.5 3.46 0.62 6.3 0.87 9.81 0.5 3.22-2.31 3.22-2.31 6-5 0.68-0.33 1.36-0.66 2.06-1 2.88-1.49 4.79-3.61 6.94-6v-2c0.59-0.25 1.19-0.51 1.8-0.77 2.44-1.37 3.69-2.75 5.45-4.92 2.42-2.87 4.88-5.39 7.75-7.81 2.76-2.34 5.16-4.74 7.5-7.5 2.92-3.45 6.09-6.3 9.53-9.22 2.65-2.4 4.88-5.08 7.18-7.81 2.43-2.67 5.14-4.93 7.89-7.26 1.82-1.64 3.35-3.32 4.9-5.21 2.13-2.6 4.37-4.77 6.94-6.94 2.78-2.36 5.2-4.78 7.56-7.56 2.92-3.45 6.09-6.3 9.53-9.22 2.01-1.81 3.72-3.72 5.47-5.78 2.34-2.76 4.74-5.16 7.5-7.5 3.49-2.96 6.44-6.15 9.39-9.64 1.43-1.65 2.91-3.17 4.49-4.67 2.33-2.09 2.33-2.09 3.12-5.19 0.74-0.29 1.49-0.58 2.25-0.88 3.44-1.4 5.24-3.41 7.75-6.12 0.6-0.56 1.2-1.11 1.81-1.69 1.41-1.26 1.41-1.26 1.19-3.31h2c1.3-1.33 1.3-1.33 2.62-3.06 2.92-3.56 6.15-6.4 9.74-9.26 1.86-1.9 2.12-3.13 2.64-5.68 1.31-0.7 2.65-1.36 4-2 1.71-1.62 3.37-3.29 5-5l30-30c0.85-0.87 1.69-1.73 2.56-2.62 2.44-2.38 2.44-2.38 4.75-4.07 0.84-0.65 0.84-0.65 1.69-1.31v-2c0.78-0.08 1.57-0.16 2.38-0.25 0.86-0.25 1.73-0.5 2.62-0.75 1.09-1.93 1.09-1.93 2-4 0.58-0.27 1.17-0.54 1.77-0.82 2.93-1.55 4.66-3.58 6.85-6.06 1.17-1.29 1.17-1.29 2.36-2.61 1.74-2.17 2.81-4.05 4.02-6.51l3-3c1.16-1.96 1.16-1.96 2.12-4.06 0.34-0.69 0.67-1.39 1.01-2.1 0.29-0.61 0.58-1.21 0.87-1.84l1-2-1-2c-2.96 0-4.45 1.81-6.75 3.51zm52.8 2.76c-0.57 0.98-1.15 1.97-1.74 2.98-0.87 1.46-0.87 1.46-1.76 2.95-1.24 2.25-2.43 4.49-3.55 6.8h-2c-1.46 2.65-2 3.89-2 7h-2c-1.73 2.2-3.35 4.39-4.94 6.69-0.44 0.62-0.88 1.25-1.34 1.89-1.91 2.73-3.73 5.44-5.41 8.31-1.31 2.11-1.31 2.11-3.31 3.11-0.88 1.58-1.75 3.16-2.62 4.74-1.67 2.73-3.56 5.22-5.5 7.76-3.56 4.67-6.94 9.43-10.2 14.3-0.61 0.92-0.61 0.92-1.24 1.85-1.96 2.96-3.79 5.93-5.49 9.04-1.8 3.02-3.46 4.89-5.96 7.3-1.65 2.17-3.25 4.34-4.81 6.56-0.44 0.62-0.88 1.24-1.33 1.87-2.64 3.75-5.14 7.55-7.55 11.4-2.6 4.18-5.5 7.78-8.81 11.4-1.84 2.09-3.18 4.25-4.5 6.7-2.03 3.71-3.92 7.06-7 10l-1.06 2.12c-0.94 1.88-0.94 1.88-2.94 2.88-0.96 1.63-1.92 3.27-2.83 4.93-2.09 3.7-4.42 7.25-6.73 10.8-0.48 0.75-0.97 1.51-1.46 2.29-0.47 0.72-0.94 1.45-1.42 2.19-0.42 0.66-0.84 1.31-1.27 1.98-1.29 1.79-1.29 1.79-2.95 3.34-1.68 1.49-1.68 1.49-1.34 4.45-0.99 0.33-1.98 0.66-3 1-1.68 2.25-1.68 2.25-3.19 4.94-0.79 1.34-0.79 1.34-1.6 2.71-1.36 2.21-1.36 2.21-1.21 4.35h-2c-1.82 1.91-1.82 1.91-3.62 4.31-0.64 0.8-1.27 1.6-1.92 2.43-1.73 2.23-1.73 2.23-1.46 5.26-0.58 0.23-1.15 0.47-1.75 0.71-5.94 3.41-9.97 10.5-13.1 16.4-2.03 3.34-4.62 6.26-7.1 9.28-2.41 3.06-4.53 6.25-6.6 9.55-1.6 2.26-3.46 4.05-5.42 6.01-1.1 1.47-2.16 2.98-3.19 4.5-2.79 4.06-5.66 8.05-8.62 12-0.75 1-1.5 2-2.27 3.03-1.92 2.47-1.92 2.47-3.92 4.47v3c6.27 2.85 12.6 5.48 19 8 5.66 2.23 11.3 4.53 16.8 7.03 3.53 1.57 7.1 3.02 10.7 4.47 5.05 2.05 10 4.17 15 6.39 2.81 1.26 5.63 2.5 8.44 3.73 1.05 0.46 2.1 0.92 3.18 1.4 2.15 0.94 4.3 1.88 6.45 2.83 5.11 2.24 10.2 4.51 15.3 6.84 3.85 1.76 7.71 3.36 11.7 4.81 5.69 2.15 11 4.72 16.4 7.5 4.77 2.43 8.57 3.33 14 3 2.56-10 4.96-20.1 6.57-30.3 0.53-3.27 1.12-6.5 1.97-9.7 0.5-2.15 0.68-4.19 0.84-6.4 0.49-5.88 1.29-11.7 2.12-17.6 0.2-1.4 0.2-1.4 0.4-2.83 0.12-0.88 0.25-1.76 0.38-2.67 0.17-1.19 0.17-1.19 0.35-2.41 0.37-2.09 0.37-2.09 1.37-5.09 0.07-1.39 0.09-2.79 0.06-4.19-0.03-1.88-0.03-1.88-0.06-3.81 0.99-0.33 1.98-0.66 3-1-0.04-1.22-0.08-2.43-0.12-3.69 0-7.05 0.15-15.4 4.12-21.3 0.2-1.99 0.2-1.99 0.06-4.06-0.06-3.94-0.06-3.94 0.94-5.94 0.28-2.92 0.45-5.84 0.62-8.76 0.42-3.58 1.39-6.78 2.38-10.2 0.38-2.49 0.71-4.99 1-7.5 0.43-3.73 0.91-7.2 1.96-10.8 1.32-4.66 1.99-9.32 2.66-14.1 0.21-1.38 0.21-1.38 0.41-2.79 0.33-2.26 0.65-4.51 0.97-6.77h1c-0.03-1.7-0.03-1.7-0.06-3.44 0.06-3.56 0.06-3.56 1.06-4.56 0.21-1.47 0.37-2.95 0.5-4.44 0.39-4.34 0.39-4.34 1.5-6.56 0.16-1.46 0.28-2.91 0.38-4.38 0.35-4.01 1.08-7.72 2.12-11.6 1.21-4.55 1.92-8.86 2.19-13.6 0.31-2.45 0.31-2.45 1.27-5.69 1.16-4.2 1.67-8.25 2.1-12.6 0.81-7.94 0.81-7.94 1.94-10.2 0.18-1.39 0.32-2.79 0.44-4.19 0.42-4.13 1.41-7.82 2.56-11.8 0.52-3.17 1-6.34 1.44-9.52 0.18-0.82 0.37-1.64 0.56-2.48l2-1c0.47-2.03 0.47-2.03 0.63-4.47 0.09-0.9 0.17-1.8 0.26-2.73 0.08-0.94 0.15-1.89 0.23-2.86 0.13-1.43 0.13-1.43 0.27-2.88 0.21-2.35 0.41-4.71 0.61-7.06h2c0.05-1.62 0.09-3.25 0.12-4.88 0.03-0.9 0.05-1.8 0.08-2.74 0.04-2.57 0.04-2.57-2.2-4.38-3.57-0.68-4.54-0.54-6.95 2.27zm-92 78.7c-1.82 1.95-3.54 3.97-5.25 6.02-2.41 2.72-5.13 4.98-7.91 7.32-1.71 1.54-3.06 3.09-4.46 4.91-2.38 2.75-2.38 2.75-5.26 4.13-3.74 1.94-5.61 4.3-8.27 7.51-1.83 2.08-3.73 3.83-5.85 5.61-3.45 2.93-6.36 6.09-9.29 9.53-3.91 4.5-8.18 8.55-12.7 12.4-3.43 2.95-6.3 6.14-9.22 9.59-1.81 2.01-3.72 3.72-5.78 5.47-3.49 2.96-6.45 6.17-9.41 9.65-2.08 2.41-4.31 4.63-6.59 6.85l-5 5c-1.14 1.18-1.14 1.18-2.31 2.38-2.14 2.08-4.29 4-6.57 5.93-4.64 4.02-8.59 8.52-12.4 13.3-2.27 2.82-4.59 5.16-7.39 7.43-2.86 2.36-4.34 4.26-5.31 7.94h-2c-1.53 1.55-1.53 1.55-3.12 3.56-2.47 2.91-4.96 5.48-7.88 7.94-3.49 2.96-6.44 6.16-9.4 9.64-5.6 6.53-5.6 6.53-9.6 7.86-3.71 3.46-6.41 7.29-6.75 12.4 0.43 7.13 3.43 13.8 5.96 20.4 2.1 5.63 3.87 11.4 5.66 17.1 0.33 1.05 0.65 2.1 0.99 3.18 0.67 2.15 1.34 4.3 2 6.45 2.23 7.07 4.95 13.7 8.14 20.4 0.54 1.22 1.09 2.44 1.62 3.66 0.46 0.98 0.91 1.96 1.38 2.96 0.45 1.01 0.91 2.01 1.38 3.04 1.44 2.58 1.44 2.58 4.31 3.18 1.14 0.08 1.14 0.08 2.31 0.16 1.37-7.83 2.52-15.7 3.54-23.6 0.3-2.26 0.65-4.51 1.05-6.75 0.4-2.65 0.28-4.2-0.59-6.7h2c2.84-10.7 5.45-21.1 6.45-32.1 0.6-3.12 1.2-3.87 3.55-5.87l1-3c2.06-1.19 2.06-1.19 4-2v-4c0.59-0.26 1.19-0.52 1.8-0.79 2.34-1.29 3.67-2.56 5.39-4.59 0.76-0.87 0.76-0.87 1.54-1.77 1.35-1.96 1.85-3.53 2.27-5.85h2c0.39-0.89 0.78-1.77 1.19-2.69 1.81-3.31 1.81-3.31 4.19-5.62 2.9-2.98 4.49-5.9 6.31-9.6 1.48-2.36 3.06-3.5 5.31-5.09 1.03-1.65 2.02-3.32 3-5 0.84-1.06 1.69-2.1 2.56-3.12 3.55-3.92 3.55-3.92 4.44-8.88l4-2v-4h3l3-6h2c0.25-0.55 0.51-1.11 0.77-1.68 0.52-1.09 0.52-1.09 1.04-2.2 0.34-0.71 0.68-1.43 1.02-2.17 1.17-1.95 1.17-1.95 4.17-3.95 1.05-1.64 2.04-3.31 3-5 1.08-1.58 1.08-1.58 2.19-3.19 1.99-2.53 1.99-2.53 1.81-4.81l4-2v-4c0.99-0.33 1.98-0.66 3-1 2.97-3.63 2.97-3.63 4-8 0.99-0.33 1.98-0.66 3-1 1.02-1.99 2.02-3.99 3-6l3-2c0.68-1.33 1.35-2.66 2-4l2-1c2.01-2.94 3-4.39 3-8 0.64-0.23 1.28-0.45 1.94-0.69 2.33-1.16 2.33-1.16 2.81-3.93 0.08-0.79 0.16-1.57 0.25-2.38 0.99-0.33 1.98-0.66 3-1 1.03-1.65 2.02-3.32 3-5 0.72-0.7 1.44-1.4 2.19-2.12 2.16-1.8 2.16-1.8 1.81-4.88h2v-2h2c0.08-0.95 0.16-1.9 0.25-2.88 0.37-1.54 0.37-1.54 0.75-3.12 1.94-1.06 1.94-1.06 4-2 0.7-1.65 1.37-3.32 2-5l3-2c1.94-3.92 3.13-7.7 2.69-12.1-0.23-0.64-0.46-1.28-0.69-1.94-4.23 0-7.94 4.34-11 7zm78 161 1 2zm-190 9 1 2zm9 33c-1.16 3.11-1.16 3.11-2 6.88-0.34 1.38-0.68 2.76-1.03 4.14-0.16 0.69-0.33 1.37-0.5 2.07-0.61 2.49-1.32 4.95-2.03 7.41-1.48 5.41-2.55 10.9-3.61 16.4-0.58 2.97-1.23 5.92-1.91 8.87-0.18 0.8-0.37 1.6-0.56 2.43-0.35 1.55-0.72 3.1-1.09 4.65-0.96 4.15-1.47 7.88-1.27 12.2 4.44 0 7.24-0.62 10.8-3.38 1.39-1.57 1.39-1.57 1.75-3.68 0.5-1.94 0.5-1.94 3.5-3.94 1.2-2.55 1.2-2.55 2-5h2c1.76-3.09 2-4.23 2-8 0.6-0.02 1.2-0.04 1.81-0.06 2.57-0.81 2.57-0.81 3.69-4.19 0.23-0.63 0.47-1.26 0.71-1.9 1.13-2.65 2.96-4.64 4.79-6.85v-2c0.99-0.33 1.98-0.66 3-1 0.68-1.32 1.35-2.66 2-4l3-2c1.97-3.01 2.7-5.44 2-9-5.63-6.07-13-7.97-21-9v-2c-3.04-0.08-5.07 0.02-8 1zm-43 95 1 2z" fill="#4DA4F6"/>
<path transform="translate(1059 941)" d="m0 0c5.72 0.09 8.28 1.78 12.3 5.81 7.02 8.93 7.62 19.8 7.63 30.7 0.01 0.79 0.02 1.58 0.03 2.39 0.01 4.04-0.09 6.82-2.22 10.4v3c-0.31 6.13-1.63 11.6-3.44 17.4-0.21 0.71-0.43 1.42-0.66 2.15-1.65 5.16-1.65 5.16-3.9 7.41-0.84 2.02-1.63 4.07-2.37 6.13-1.64 4.35-3.36 8.5-5.52 12.6-2.61 5.29-4.82 10.8-7.11 16.2h-2l-1 5c-1.49 0.49-1.49 0.49-3 1-1.24 2.09-1.24 2.09-2.19 4.56-0.34 0.83-0.69 1.66-1.04 2.51-0.25 0.63-0.51 1.27-0.77 1.93h-2l-2 6h-3c-0.29 0.95-0.58 1.9-0.87 2.87-1.13 3.13-1.13 3.13-3.13 5.13-1.63 6-1.1 10.5 2 16 2.65 3.27 4.98 4.8 9 6 10.6-1.3 17.5-4.99 24.4-13 4.79-8.66 2.69-21.3 2.54-31-0.03-2.2-0.04-4.39-0.06-6.59-0.02-1.3-0.03-2.6-0.05-3.94 0.2-3.33 0.82-5.46 2.21-8.45 0.36-1.76 0.67-3.53 0.94-5.31 0.82-4.88 2.16-9.12 4.06-13.7h2l-1-3c0.19-2.17 0.47-4.34 0.81-6.5 0.17-1.14 0.35-2.29 0.52-3.47 0.67-3.03 0.67-3.03 2.67-6.03 0.61-3.34 1.02-6.69 1.44-10.1 0.56-2.93 0.56-2.93 2.56-4.93 0.65-2.57 0.65-2.57 1-5h2c-0.06-1.89-0.06-1.89-0.13-3.81-0.11-3.48 0.07-4.1 2.13-7.19 0.63-2.11 0.63-2.11 1-4h2v-5h3c0.07-0.64 0.15-1.28 0.23-1.94 0.99-6.56 2.8-10.6 7.77-15.1 3-2 3-2 7-2v-2l-2-1c7.31-1.81 13.8-2.77 21 0 2.94 2.37 2.94 2.37 5 5 0.84 0.96 0.84 0.96 1.69 1.94 1.63 2.56 2.43 5.16 3.31 8.06l1 2c0.21 4.38 0.19 8.77 0.19 13.2 0 2.17 0.02 4.34 0.03 6.51 0.05 11.5-0.9 22.1-5.22 32.8-0.26 0.68-0.52 1.35-0.79 2.05-1.26 3.23-2.64 6.36-4.21 9.45-0.37 1.32-0.71 2.66-1 4h-2c-0.09 0.82-0.17 1.64-0.26 2.49-0.91 4.31-2.61 7.8-4.61 11.7-0.53 1.06-0.53 1.06-1.07 2.15-2.68 5.29-2.68 5.29-4.63 7.17-1.75 1.59-1.75 1.59-2.37 4.93-1.16 3.9-2.25 4.78-5.06 7.56-1.65 2.6-3.13 5.26-4.63 7.95-0.68 1.02-0.68 1.02-1.37 2.05h-2c-0.27 0.97-0.54 1.94-0.81 2.94-0.59 1.51-0.59 1.51-1.19 3.06-0.99 0.33-1.98 0.66-3 1-0.24 1.92-0.47 3.85-0.7 5.77-0.27 2-0.62 3.99-0.99 5.98-0.32 3.31-0.25 4.6 1.69 7.25l2 1v2c8.17 2.11 15.9 1.36 23.6-2.19 2.88-2.14 4.9-4.58 7.11-7.38 0.44-0.47 0.88-0.95 1.33-1.43h2c0.21-0.56 0.41-1.11 0.63-1.69 2.82-4.76 7.17-7.63 12.4-9.31 2 1.56 2 1.56 4 4 0.25 3.75 0.25 3.75 0 7h-2c0.1 0.87 0.21 1.73 0.31 2.63-0.43 4.65-2.07 6.06-5.31 9.37l-2 1-1 3h-2c-0.23 0.8-0.45 1.61-0.69 2.44-0.65 1.27-0.65 1.27-1.31 2.56-1.66 0.37-3.33 0.71-5 1-0.29 0.6-0.57 1.21-0.87 1.83-2.38 4.57-7.53 6.37-12.1 8.17-7.77 1.97-16.5 3.33-24 0-3.63-2.72-6.8-5.8-10-9v-3h-2v-2h-2v-2h-2v2h-4l-2 4c-1.67 0.34-3.33 0.67-5 1l-2 2c-7.54 5.88-14.3 8.59-23.9 8.56h-2.38c-5.69-0.18-9.63-1.28-14.2-4.76-1.76-2.22-2.08-4.02-2.43-6.8h-2c-0.39-0.8-0.78-1.61-1.19-2.44-1.66-2.96-1.66-2.96-5.5-3.37-1.09-0.06-2.18-0.13-3.31-0.19v4h-2l-1 2c-3.46 3-3.46 3-7 3v3h-2v2h-3l-1 3c-3.29 0.03-6.58 0.05-9.87 0.06-1.41 0.02-1.41 0.02-2.84 0.03-0.9 0-1.8 0-2.72 0.01-0.83 0-1.65 0.01-2.51 0.01-2.06-0.11-2.06-0.11-4.06-1.11v-4h-2c-0.67-1.29-1.34-2.58-2-3.87-0.37-0.72-0.74-1.44-1.13-2.18-0.87-1.95-0.87-1.95-0.87-3.95-3.99 1.29-5.62 2.6-8 6h-2v2h-2v2c-0.8 0.29-1.61 0.58-2.44 0.87-2.69 0.86-2.69 0.86-3.56 3.13-5.7 2.48-10.9 3.69-17 2-3.91-1.67-7.46-3.64-11-6v-2h-2l-2-3c-2.06-0.72-2.06-0.72-4-1v2c-1.36 0.34-1.36 0.34-2.75 0.69-3.37 1.03-3.37 1.03-5.06 3.75-3.25 3.81-6.28 4.83-11.2 5.56-2.93 0.13-5.82 0.07-8.75-0.06-0.73-0.03-1.47-0.05-2.22-0.08-4.85-0.33-7.65-1.34-11-4.86v-2h-2l-3-6c-0.36-0.58-0.72-1.17-1.09-1.77-1.28-3.13-1.14-5.86-1.1-9.23 0.01-1.22 0.02-2.43 0.02-3.69 0.28-5.53 1.96-10.6 4.22-15.7 2.4-6.69 1.28-14.1-1.05-20.6h-2c-1.24 1.5-2.48 3.01-3.7 4.53-1.59 1.8-3.01 2.76-5.3 3.47l-2-1c-0.19 0.86-0.19 0.86-0.38 1.73-0.63 2.32-1.48 4.34-2.49 6.52-4.19 9.03-6.07 17.4-7.5 27.2-1.12 7.07-2.64 14.1-7.38 19.6-3.41 1.42-6.66 1.48-10.2 0.94-2.81-1.37-2.81-1.37-5-3l-3-2v-4c-0.99-0.33-1.98-0.66-3-1-4.59-9.67-1.18-19.6 2.06-29.1 2.52-7.72 3.21-14.8 2.94-22.9h-4v2c-1.98 0.33-3.96 0.66-6 1-0.37 1.36-0.37 1.36-0.75 2.75-1.25 3.25-1.25 3.25-3.14 5.1-6.2 6.31-8.9 15.8-11.1 24.2-0.66 2.31-1.33 4.63-2 6.94-1.52 5.29-2.95 10.6-4.29 16-0.71 2.11-0.71 2.11-2.71 4.11-4.78 0.64-9.85 0.58-14-2-1.62-1.75-3.12-3.55-4.57-5.44-1.45-1.84-1.45-1.84-4.43-2.56l-1 4-4 1v2c-7.59 4.83-16.9 3.75-25.5 2.6-4.91-1.19-7.21-3.97-10.1-8.06-1.39-2.54-1.39-2.54-2.41-4.8-0.92-2.09-0.92-2.09-3.98-2.74-0.26 0.6-0.51 1.19-0.78 1.81-1.33 2.39-2.64 3.58-4.78 5.25-2.63 2.07-3.34 2.65-4.44 5.94-4.99 2.7-10.3 4.49-16 4-4.35-1.68-7.29-3.68-9.5-7.81-0.16-0.72-0.33-1.45-0.5-2.19h-4v2c-3.3 1.74-6.63 3.4-10 5-0.72 0.34-1.44 0.68-2.18 1.04-7.2 2.91-15.8 2.92-23.1 0.09-4.37-2.8-6.84-6.92-9.4-11.3-0.45-0.59-0.9-1.18-1.36-1.79-3.32 0-5.09 0.43-8 2-1.36 2.52-1.36 2.52-2 5h-3c-0.34 0.92-0.34 0.92-0.69 1.86-2.18 3.57-5.46 4.17-9.29 5.44-7.17 1.66-13.6 0.09-20-3.3-0.44-0.52-0.88-1.04-1.33-1.57-2.41-2.07-4.29-1.86-7.43-1.94-1.12-0.04-2.24-0.07-3.39-0.11-1.75-0.03-1.75-0.03-3.54-0.07-1.18-0.03-2.36-0.07-3.57-0.1-2.91-0.08-5.83-0.15-8.74-0.21v2h-5v2c-0.99-0.33-1.98-0.66-3-1-0.39 0.47-0.78 0.95-1.19 1.44-2.23 1.92-3.93 2.12-6.81 2.56l-2 1c-1.58 0.1-3.17 0.13-4.75 0.13-0.99 0.01-1.98 0.01-2.99 0.01-1.08-0.01-2.15-0.01-3.26-0.01-1.66-0.01-1.66-0.01-3.36-0.02-3.55-0.02-7.09-0.06-10.6-0.11-1.14-0.01-2.29-0.03-3.47-0.04-16.5-0.23-31.8-0.76-46.5-8.96-0.69-0.17-1.38-0.34-2.09-0.51-2.8-0.72-3.92-2.39-5.91-4.49-1.27-1.04-2.54-2.09-3.81-3.13-4.65-4.01-7.87-8.74-11.2-13.9l-2-3c-2.01-6.59-3.25-13.3-1-20h2c0.1-1.22 0.21-2.43 0.31-3.69 0.47-3.74 1.36-6.27 3.69-9.31 1.49-0.99 1.49-0.99 3-2l1-3c3.54-4.43 6.81-5.89 12.1-7.32 2.09-0.51 2.09-0.51 2.89-2.68 2.26-0.84 4.55-1.47 6.87-2.12 2.47-0.79 2.47-0.79 4.13-3.88-0.62-0.56-1.24-1.11-1.87-1.69-2.22-2.41-2.97-4.3-4.13-7.31-0.47-0.45-0.95-0.91-1.44-1.37-2.36-2.47-3.25-5.51-4.56-8.63l-2-2c-3.67-9.82-3.15-17.2 0.87-26.7 1.85-3.89 3.93-7.61 6.13-11.3h3c0.21-0.76 0.41-1.53 0.63-2.31 1.82-3.57 3.74-4.12 7.37-5.69 0.91-0.56 1.82-1.11 2.75-1.69 2.25-1.31 2.25-1.31 4.25-1.31 0.16-0.6 0.32-1.21 0.48-1.83 2.4-3.42 5.97-3.88 9.83-4.86 0.81-0.21 1.61-0.43 2.44-0.65 5.94-1.51 11.6-2.3 17.8-2.52 2.63-0.04 2.63-0.04 5.5-1.14 1.49 0.5 1.49 0.5 3 1 1.36 0.17 2.73 0.29 4.1 0.39 16.7 1.38 25.9 4.69 36.9 17.6 1.75 2.59 2.93 5.07 4 8 0.3 0.6 0.61 1.19 0.92 1.81 2.99 6.31 1.85 12.4 1.08 19.2v3c-1.87 3.19-1.87 3.19-4 6h-2c-0.27 0.64-0.54 1.28-0.81 1.94-1.19 2.06-1.19 2.06-4.19 3.06-0.29 0.66-0.58 1.32-0.87 2-1.13 2-1.13 2-3.44 2.94-3.43 0.08-4.97-0.9-7.69-2.94-1.29-2.59-1.03-4.36-0.94-7.25 0.26-13.2 0.26-13.2-5.06-24.8v-2h-2l-3-3c-5.05-1.68-10.3-1.23-15.6-1.25-1.72-0.03-1.72-0.03-3.48-0.06-11-0.16-11-0.16-20.5 4.82-0.47 0.49-0.94 0.98-1.42 1.49-1.66 1.01-3.33 2.01-5 3l-2 2c-0.99 0.5-0.99 0.5-2 1l-1 3c-2.06 0.69-2.06 0.69-4 1 0.11 2.08 0.24 4.17 0.37 6.25 0.11 1.74 0.11 1.74 0.22 3.52 0.55 4.33 1.23 6.26 4.62 9.05 0.86 0.57 1.72 1.15 2.6 1.74 0.85 0.58 1.71 1.16 2.58 1.76 8.59 5.54 17.4 8.55 27.3 10.9 2.48 0.87 3.63 1.82 5.31 3.81-0.85 3.81-1.4 5.57-4.63 7.87-4.08 1.37-7.08 1.35-11.4 1.13l-1 2c-2.32 0.4-4.66 0.73-7 1-1.67 0.32-3.34 0.65-5 1v2c-9.41 3.44-9.41 3.44-14 3v2c-0.66 0.3-1.33 0.61-2.01 0.92-7.3 3.45-7.3 3.45-13 9.08-0.88 3.18-0.88 3.18-1 6h-2c-0.07 11.8-0.07 11.8 5 22 2.58 1.8 5.16 3.33 7.95 4.77 0.68 0.41 1.35 0.81 2.05 1.23v2c8.3 0.05 16.6 0.08 24.9 0.1 3.85 0.01 7.71 0.03 11.6 0.05 3.73 0.02 7.46 0.03 11.2 0.04 1.41 0 2.83 0.01 4.24 0.02 14.4 0.44 14.4 0.44 27.1-5.21 3.25-0.69 3.25-0.69 6-1l1-3c0.83-0.7 1.65-1.4 2.5-2.13 3-3.44 3.12-5.37 3.26-9.78 0.24-2.09 0.24-2.09 2.24-5.09 0.81-3.08 1.46-6.17 2.12-9.29 0.88-2.71 0.88-2.71 3.88-4.71 1.14-2 2.19-4.05 3.19-6.13 0.53-1.09 1.06-2.19 1.6-3.32 0.6-1.26 0.6-1.26 1.21-2.55l2 1c0.27-0.64 0.54-1.28 0.81-1.94 1.19-2.06 1.19-2.06 4.19-3.06l-1-2c0.57-0.19 1.13-0.39 1.71-0.59 0.74-0.26 1.47-0.52 2.23-0.78 0.73-0.26 1.46-0.52 2.21-0.78 2.04-0.7 2.04-0.7 2.85-2.85 2.33-0.78 2.33-0.78 5.25-1.5 2.91-0.72 5.64-1.46 8.42-2.59 2.33-0.91 2.33-0.91 5.33-0.91-0.19-0.78-0.37-1.57-0.56-2.37-0.44-2.63-0.44-2.63 0.56-4.63 0.35-1.66 0.68-3.33 1-5 0.5-2.13 1-4.25 1.5-6.37 1.34-5.78 2.25-11.5 2.94-17.4 0.56-3.25 0.56-3.25 2.56-6.25 0.35-2.33 0.68-4.66 1-7 0.64-2.01 1.31-4.01 2-6 0.34-1.44 0.67-2.87 1-4.31 0.33-1.22 0.66-2.44 1-3.69 0.99-0.5 0.99-0.5 2-1 0.73-1.98 1.4-3.98 2-6h2c0.18-0.66 0.36-1.33 0.55-2.01 3.3-11.6 3.3-11.6 8.7-15.1 1.24-0.63 2.49-1.26 3.75-1.87 1.09-0.58 2.19-1.15 3.31-1.75 5.64-1.91 10.9-1.94 16.7-0.5 2.37 1.48 2.87 2.75 4 5.25 0.99 0.33 1.98 0.66 3 1 4.17 5.84 5.35 11.7 5.25 18.8-0.01 0.71-0.01 1.42-0.02 2.15-0.09 4.62-0.52 8.92-1.59 13.4-0.68 2.88-1.22 5.78-1.75 8.69-2.37 13-2.37 13-3.89 18-0.99 0.5-0.99 0.5-2 1-0.72 2.05-1.43 4.11-2.08 6.19-1.05 3.22-2.22 6.39-3.42 9.56-0.4 1.07-0.8 2.13-1.22 3.23-1.22 2.88-2.64 5.37-4.28 8.02-0.91 1.76-1.81 3.53-2.69 5.31-0.77 1.57-0.77 1.57-1.56 3.16-0.58 1.17-1.16 2.33-1.75 3.53-1.37 2.75-2.75 5.5-4.13 8.25-0.96 1.93-1.93 3.86-2.89 5.79-0.69 1.38-1.38 2.75-2.07 4.13-0.36 0.71-0.71 1.41-1.08 2.14-0.32 0.64-0.64 1.28-0.98 1.94-2.38 4.88-3.99 9.41-3.95 14.9 0.01 0.75 0.01 1.51 0.01 2.28 0.01 0.78 0.02 1.56 0.03 2.36 0 1.19 0 1.19 0.01 2.4 0.01 1.95 0.03 3.9 0.05 5.85h2l2 3c2.06 0.72 2.06 0.72 4 1v2c1.89-0.19 1.89-0.19 3.81-0.37 0.71-0.07 1.42-0.14 2.15-0.22 2.34-0.34 2.34-0.34 5.04-2.41h3v-2c1.97-2.35 3-3 6-4l2-3 1 1c1.98-6.8 2.16-13 1.93-20.1-0.1-3.94 0.09-6.54 2.07-9.94 0.3-2.09 0.3-2.09 0.37-4.25 0.38-4.26 1.67-7.15 3.72-10.8 1.12-2.11 1.12-2.11 1.41-5.54 0.63-4.22 1.55-6.27 4.5-9.37 2.3-0.6 4.41-0.81 6.78-0.89 2.24-0.03 2.24-0.03 4.39-0.69 1.83-0.42 1.83-0.42 3.64 0.64 1.96 3.2 0.56 6.33-0.26 9.86-0.33 1.4-0.67 2.8-1.01 4.2-1.96 8.19-3.06 16-3.36 24.4-0.18 3.45-0.18 3.45-0.7 6.44-0.56 3.51-0.58 6.84-0.54 10.4 0.01 1.87 0.01 1.87 0.02 3.78 0.02 0.94 0.03 1.88 0.04 2.85h8l1-2c0.96-0.45 0.96-0.45 1.94-0.91 2.42-1.28 2.93-2.13 4.06-4.59 0.33-0.7 0.65-1.41 0.99-2.13 1.45-3.39 2.79-6.82 4.08-10.3 0.93-2.1 0.93-2.1 2.93-4.1 0.5-1.8 0.93-3.61 1.31-5.44 1.26-5.36 3.16-9.94 5.56-14.9 1.47-3.5 2.04-6.92 2.48-10.7 0.65-2 0.65-2 2.65-3.09 0.66-0.3 1.32-0.6 2-0.91l1-3c1.6-0.25 3.21-0.47 4.81-0.69 0.9-0.13 1.79-0.25 2.71-0.38 2.48 0.07 2.48 0.07 4.28 1.3 2.73 4.02 1.64 9.19 0.86 13.8-2.19 11.3-5.15 22.4-8.77 33.3-1.05 4.31-1.11 8.19-1.02 12.6 0.02 1.17 0.02 1.17 0.03 2.36 0.03 1.9 0.06 3.8 0.1 5.7 5.1 2.2 9.25 2.77 14.7 1.25 5.73-3.1 8.84-8.37 11.3-14.2 0.97-3.97 1.48-7.95 2-12 0.37-2.25 0.74-4.5 1.13-6.75 0.16-1.01 0.33-2.01 0.5-3.05 0.12-0.72 0.25-1.45 0.37-2.2h2c-0.03-1.45-0.03-1.45-0.06-2.94 0.06-3.06 0.06-3.06 1.06-4.06 0.23-1.93 0.47-3.87 0.68-5.8 0.46-3.17 1.38-6.15 2.32-9.2 0.16-0.7 0.33-1.4 0.5-2.13 0.64-2.4 1.46-4.61 2.5-6.87 3-1.5 5.79-1.09 9.13-1.06 1.28 0.01 2.56 0.02 3.88 0.02 0.99 0.02 1.97 0.03 2.99 0.04 1.96 3.23 2.15 5.02 1.39 8.7-0.18 0.88-0.36 1.76-0.54 2.66-0.2 0.91-0.4 1.83-0.6 2.77-0.27 1.37-0.27 1.37-0.55 2.78-1.43 6.82-1.43 6.82-3.7 9.09-0.47 2.56-0.83 5.05-1.13 7.63-0.12 1.05-0.12 1.05-0.26 2.14-0.21 1.74-0.41 3.48-0.61 5.23 1.97-0.35 1.97-0.35 4-1 1.09-1.93 1.09-1.93 2-4 1.49-0.99 1.49-0.99 3-2 0.93-1.92 0.93-1.92 1.56-4.06 0.69-2.16 0.69-2.16 1.44-3.94l2-1c0.45-0.93 0.91-1.86 1.37-2.81 1.59-3.1 3.21-4.77 5.63-7.19 0.79-2.14 0.79-2.14 1-4h3c0.34-0.93 0.34-0.93 0.69-1.87 1.69-2.75 3.34-3.06 6.31-4.13l1-2c4.92-1.64 9.87-1.61 15-1 4.33 2.94 5.84 5.97 7 11 1.12 6.65 1.11 13.3 1 20h2v2h2l-1-3 4-1 1-5h2c0.08-0.7 0.16-1.4 0.25-2.13 0.93-3.56 2.52-5.96 4.75-8.87h2v-3c0.64-0.27 1.28-0.54 1.94-0.81 2.39-1.08 2.39-1.08 3.06-4.19 2.94-1.75 2.94-1.75 6-3l2 1-1-3c2.63-0.03 5.25-0.05 7.87-0.06 1.12-0.02 1.12-0.02 2.27-0.03 5.63-0.02 5.63-0.02 7.86 1.09 0.08 3.93 0.13 7.86 0.16 11.8 0.03 1.98 0.07 3.96 0.1 5.93 0.06 7.98-0.76 14.7-3.26 22.3-0.35 1.33-0.68 2.66-1 4-0.18 0.69-0.35 1.38-0.54 2.09-1.68 7.32-1.65 14.4-1.46 21.9 7.03 1.53 7.03 1.53 13.8-0.44 1.11-0.77 1.11-0.77 2.25-1.56l2-1c1.07-2.14 1.07-2.14 2-4.69 0.35-0.91 0.7-1.82 1.06-2.75 1.04-2.84 2-5.69 2.94-8.56 0.98-2.67 1.99-5.34 3-8h2c0.05-0.58 0.1-1.16 0.15-1.76 0.45-4.68 1.15-8.81 2.85-13.2h2c0.37-1.36 0.37-1.36 0.75-2.75 1.31-3.41 2.68-4.76 5.25-7.25 0.34-1.33 0.68-2.66 1-4 1.49-0.49 1.49-0.49 3-1 1.21-2 1.21-2 2-4h5v-2c8.02-3.94 15.5-4.39 24.3-4.37 1.04-0.01 2.08-0.01 3.15-0.01 12.3 0.18 12.3 0.18 17.5 3.75 3.09 3.49 4.39 5.97 4.5 10.7-0.24 3.9-0.97 7.32-2.5 10.9h-2c0.19 0.91 0.37 1.82 0.56 2.75 0.42 3.13 0.2 4.33-0.56 7.25-0.36 3.7-0.51 7.41-0.69 11.1-0.09 1.49-0.09 1.49-0.18 3.01-0.31 6.59 0.25 12.5 1.87 18.9 1.98 0.66 3.96 1.32 6 2l2-2h4l1-3c0.66-0.64 1.32-1.28 2-1.94 2.06-2.12 2.59-3.2 3-6.06 1.98-0.49 1.98-0.49 4-1 0.02-1.22 0.04-2.44 0.06-3.7 0.08-4.53 0.16-9.07 0.26-13.6 0.04-1.96 0.07-3.92 0.1-5.88 0.05-2.82 0.11-5.64 0.17-8.46 0.01-0.88 0.02-1.75 0.03-2.66 0.02-0.82 0.04-1.64 0.06-2.48 0.02-1.08 0.02-1.08 0.04-2.18 0.32-2.35 1.18-3.96 2.28-6.04 0.24-2.36 0.24-2.36 0.13-4.75-0.03-1.2-0.03-1.2-0.06-2.42-0.02-0.61-0.05-1.21-0.07-1.83h2c-0.03-1.92-0.03-1.92-0.06-3.87-0.07-3.88-0.07-3.88 1.06-6.13 0.22-1.54 0.41-3.08 0.56-4.63 0.09-0.81 0.17-1.63 0.26-2.47 0.06-0.63 0.12-1.25 0.18-1.9h2c-0.05-0.89-0.05-0.89-0.11-1.8-0.22-6.93 1.09-12.6 3.11-19.2 0.65-2.35 1.29-4.71 1.94-7.06 1.67-5.83 3.71-11.4 6.06-16.9 0.69-1.77 1.38-3.54 2.06-5.31 1.38-3.45 2.89-6.57 4.94-9.69 0.74-1.3 0.74-1.3 1.5-2.63 1.36-2.15 2.64-3.66 4.5-5.37l3-3c0.56-0.66 1.11-1.32 1.69-2 2.72-2.35 5.23-3.27 8.6-4.39 5.09-1.82 5.09-1.82 6.96-1.86zm-410 9.25 1 2zm452 5 1 3zm-46 6-1 3c-0.99-0.33-1.98-0.66-3-1-0.64 0.99-1.28 1.98-1.94 3-0.68 0.99-1.36 1.98-2.06 3h-1v5h-2v3c-0.99-0.33-1.98-0.66-3-1-0.19 1.09-0.39 2.17-0.59 3.29-0.26 1.44-0.52 2.89-0.78 4.34-0.13 0.71-0.26 1.42-0.39 2.16-0.58 3.19-1.22 6.17-2.28 9.25-1.15 3.55-1.57 7.07-1.96 10.8-0.98 8.56-0.98 8.56-2 12.8-2 8.24-3.18 17-3 25.4h-2l-1 15c5.84 0.7 5.84 0.7 8.37-2.31 1.89-2.59 1.89-2.59 1.63-5.69 0.62-0.07 1.23-0.13 1.87-0.2 2.32-0.61 2.32-0.61 3.29-2.91 0.3-0.87 0.6-1.74 0.9-2.64 1.35-3.71 2.79-6.92 4.94-10.2 0.53-1.08 0.53-1.08 1.06-2.19 0.94-1.81 0.94-1.81 2.94-3.81 0.37-2.33 0.71-4.66 1-7l1-2c-0.49-0.5-0.49-0.5-1-1 0.47-0.57 0.93-1.14 1.42-1.72 1.61-2.32 2.26-4.01 2.93-6.73 0.21-0.85 0.42-1.7 0.64-2.57 0.21-0.88 0.42-1.76 0.64-2.67 0.21-0.86 0.43-1.72 0.65-2.6 1.36-5.57 2.2-11 2.72-16.7h2c0.11-2.88 0.19-5.75 0.25-8.63 0.03-0.8 0.07-1.61 0.1-2.44 0.09-5.47-0.61-8.65-4.35-12.9-2.63-0.96-2.63-0.96-5-1zm-396 3c-2.36 4.26-2.36 4.26-3 9-0.99 0.33-1.98 0.66-3 1 0.04 0.68 0.08 1.36 0.13 2.06-0.12 2.82-0.67 5.17-1.49 7.86-3.44 11.2-5.77 22.3-7.18 33.9-0.46 3.16-0.46 3.16-1.46 5.16-0.1 1.83-0.13 3.67-0.13 5.5v2.97c-0.04 2.52-0.04 2.52 1.13 4.53h2v2h7c3.25-5.31 5.14-10.1 6.5-16.2 0.5-1.75 0.5-1.75 2.5-4.75 0.39-1.65 0.72-3.32 1-5 0.58-3.46 1-5 3-8 0.59-1.71 1.13-3.45 1.63-5.19 0.26-0.9 0.52-1.8 0.78-2.73 0.2-0.69 0.39-1.37 0.59-2.08h1c-0.02-1.3-0.04-2.6-0.06-3.94-0.02-1.35-0.01-2.71 0.06-4.06l1-1c0.1-1.39 0.13-2.79 0.13-4.18 0-0.85 0.01-1.69 0.01-2.56-0.01-1.34-0.01-1.34-0.01-2.7 0-0.88 0-1.77 0.01-2.68-0.01-1.27-0.01-1.27-0.01-2.56v-2.36c-0.01-2.04-0.01-2.04-1.13-3.96h-11zm451 5 1 2-1 1c-1.02 2.32-2.02 4.66-3 7h-2c-0.19 1.05-0.39 2.1-0.59 3.18-0.26 1.37-0.52 2.75-0.78 4.13-0.13 0.69-0.26 1.38-0.39 2.09-0.66 3.44-1.27 5.65-3.24 8.6-0.41 2.38-0.73 4.78-1 7.19-0.65 5.41-1.52 10.6-3 15.8-1.17 4.33-1.63 8.68-2.13 13.1-0.09 0.82-0.19 1.64-0.3 2.49-0.08 0.79-0.17 1.58-0.27 2.39-0.08 0.72-0.16 1.43-0.25 2.17-0.2 1.92-0.2 1.92 0.95 3.82h-2v8h2v6h4v-3c1.49-0.49 1.49-0.49 3-1 2.41-2.64 2.41-2.64 3-6h2c0.43-1.08 0.43-1.08 0.87-2.19 0.69-1.7 1.37-3.4 2.05-5.1 1.18-2.96 2.32-5.93 3.45-8.9 5.91-15.4 5.91-15.4 7.63-18.8 0.34-1.66 0.68-3.33 1-5 0.44-1.67 0.9-3.34 1.37-5 4.68-16.7 4.68-16.7 5.63-34l-2-3h-2v-2c-6.75-0.58-9.2 0.2-14 5zm-537 36 1 2zm495 11 1 2zm47 10 1 2zm-89 25v6h1v-6h-1zm-409 3-1 2c-0.93 0.43-1.86 0.87-2.81 1.31-3.48 1.84-4.89 3.55-7.19 6.69-0.74 0.72-1.49 1.44-2.25 2.19-1.98 1.63-1.98 1.63-1.75 3.81h-2c-2.04 4.93-3.41 8.58-3 14h-2c-0.17 3.42-0.17 3.42 0 7l2 2c0.13 3.13 0.13 3.13 0 6 0.99 0.33 1.98 0.66 3 1 0.46 0.96 0.46 0.96 0.94 1.94 1.36 2.65 2.23 3.14 5.06 4.06 3.46 0.58 3.46 0.58 7 0 3-2.17 3-2.17 5-5v-3c0.62-0.16 1.24-0.33 1.87-0.5 2.79-1.97 3.15-4.01 3.83-7.27 0.46-3.43 0.36-6.77 0.3-10.2l1-2c0.6-7.27 0.48-15.9-3.39-22.3-0.8-0.85-0.8-0.85-1.61-1.71h-3zm332 2c-0.99 1.48-0.99 1.48-2 3-0.64 0.29-1.28 0.58-1.94 0.87-2.83 1.55-3.49 3.3-5.06 6.13-1.02 1.42-2.04 2.83-3.06 4.25-6.41 9.75-4.89 19.6-3.94 30.8 0.99 0.33 1.98 0.66 3 1v3c5.77 1.68 5.77 1.68 11.7 1.56 6.14-4.15 9.29-9.54 11.3-16.6l-1-2h2c0.13-0.64 0.27-1.28 0.4-1.93 0.18-0.83 0.36-1.66 0.54-2.51 0.26-1.23 0.26-1.23 0.52-2.49 0.54-2.07 0.54-2.07 1.54-3.07 0.23-1.51 0.41-3.04 0.56-4.56 0.13-1.24 0.13-1.24 0.26-2.51 0.09-0.95 0.09-0.95 0.18-1.93h2c-0.01-0.6-0.02-1.21-0.04-1.83 0-0.8-0.01-1.6-0.02-2.42-0.01-0.79-0.03-1.58-0.04-2.39 0.1-2.36 0.1-2.36 0.68-4.55 0.14-0.6 0.28-1.19 0.42-1.81-1.1-1.85-1.1-1.85-3-3-5.21 0-10.5 0.03-15 3zm79 4v2l2-1-2-1zm-211 1 1 2zm-2 1 1 2zm-2 1 1 2zm-345 6 1 2zm253 6 1 4zm102 0 1 3zm46 11 1 3zm44 26 1 2z" fill="#1663AA"/>
<path transform="translate(1e3 445)" d="m0 0c6.47 0.49 6.47 0.49 8.94 2.88 1.06 2.12 1.06 2.12 1.06 5.12 0.99 0.33 1.98 0.66 3 1h-2l-2 10h-4v3h-5l-1 4c0.99 0.33 1.98 0.66 3 1v1l-5 1 1 2c-0.95 0.41-1.9 0.82-2.88 1.25-3.27 1.83-3.71 2.5-5.12 5.75-1.49 0.5-1.49 0.5-3 1-1.16 2.53-1.97 5.11-2.84 7.75-1.16 2.25-1.16 2.25-3.29 3.06-0.62 0.06-1.23 0.13-1.87 0.19l2 3-10 4c-0.21 3.89-0.21 3.89 1 7-3.05 0.98-4.95 0.98-8 0l1 3-2 2h-3c1.31 3.12 1.31 3.12 4 5v5l2 1 1-4 3 2-2 1c3.8 2.2 3.8 2.2 8 3l1-2 2-2c1.65-2.54 2.93-4.8 3.88-7.69 1.12-2.31 1.12-2.31 3.62-3.25 0.83-0.35 1.65-0.7 2.5-1.06 0.73-1.98 1.4-3.98 2-6 3-1 3-1 6 0l1 2-1-5c0.62-0.41 1.24-0.82 1.88-1.25 2.23-1.84 3.11-3.07 4.12-5.75v-3h2c-0.21-0.74-0.41-1.49-0.62-2.25-0.42-3.07 0-4.18 1.62-6.75 3 1 3 1 4 2v-4h2v-3l3-2 2-3 1 2 2-1v-3l1 2c0.6-0.76 1.2-1.53 1.81-2.31 5.01-6.15 5.01-6.15 9.19-6.69l2 1 1-5c1.83 5.3 0.18 10-2 15h-2c-0.37 1.08-0.37 1.08-0.75 2.19-1.37 3.08-3.02 5.23-5.19 7.81-2.13 2.55-4.02 4.93-5.69 7.81-0.45 0.72-0.9 1.45-1.37 2.19h-2c-0.07 0.52-0.14 1.05-0.21 1.59-1.13 3.44-3.22 6.09-5.35 8.97-0.68 0.93-0.68 0.93-1.37 1.88-2.06 2.84-4.14 5.65-6.23 8.47-4.45 6.02-8.4 12.2-12.2 18.6-0.82 1.22-0.82 1.22-1.66 2.46h-2c-0.38 1.1-0.38 1.1-0.77 2.22-1.3 2.93-2.77 4.86-4.85 7.28-3.2 3.87-5.88 7.81-8.44 12.1-2.81 4.7-5.78 8.74-9.48 12.8-1.84 2.05-3.13 4.21-4.46 6.62-0.84 1.44-1.7 2.88-2.56 4.31-0.42 0.7-0.83 1.4-1.26 2.12-0.39 0.52-0.78 1.03-1.18 1.57h-2c-0.27 0.97-0.54 1.94-0.81 2.94-0.39 1.01-0.79 2.02-1.19 3.06-0.99 0.33-1.98 0.66-3 1-0.58 1.87-0.58 1.87-1 4-1.04 1.92-1.04 1.92-2.33 3.9-0.47 0.73-0.94 1.45-1.42 2.2-0.5 0.75-0.99 1.5-1.5 2.28-0.48 0.74-0.96 1.48-1.45 2.24-2.21 3.4-4.45 6.65-7.1 9.73-2.36 2.51-2.36 2.51-3.2 5.65-0.68 0.67-0.68 0.67-1.37 1.36-2.73 2.75-4.34 6.2-6.23 9.56-0.69 1.03-0.69 1.03-1.4 2.08h-2c-0.25 0.56-0.5 1.11-0.75 1.69-1.25 2.31-1.25 2.31-3.31 4.87-2.1 2.36-2.1 2.36-2.94 5.44-1.64 1.69-3.31 3.35-5 5-3.54 3.79-6.35 7.47-8.82 12.1-2.04 3.34-4.6 6.28-7.08 9.3-2.76 3.47-5.21 7.11-7.65 10.8-0.48 0.61-0.96 1.22-1.45 1.84h-2c-0.39 1.09-0.39 1.09-0.79 2.2-1.25 2.9-2.72 5.11-4.65 7.61-0.89 1.19-0.89 1.19-1.81 2.4-0.57 0.59-1.15 1.18-1.75 1.79h-5c-0.99-2.48-0.99-2.48-2-5l-1 2c-2.06 0.62-2.06 0.62-4 1 0.19 0.78 0.37 1.57 0.56 2.38 0.44 2.62 0.44 2.62-0.56 4.62l2 1c-2.38 0.12-2.38 0.12-5 0l-2-2c-0.29 0.97-0.58 1.94-0.88 2.94-1.12 3.06-1.12 3.06-3.12 4.06l1 5c-1.81 0.62-1.81 0.62-4 1l-3-2h-2v4l2 1v2c-0.8 0.12-1.61 0.25-2.44 0.38-1.27 0.3-1.27 0.3-2.56 0.62l-1 2h2l-1 2c1.13 0.12 2.27 0.25 3.44 0.38 1.76 0.3 1.76 0.3 3.56 0.62l1 2-4 2c0.99 0.33 1.98 0.66 3 1 0.69 2.06 0.69 2.06 1 4h2c-0.46 6.44-1.8 12.5-3.42 18.7-1.48 5.74-2.67 11.5-3.79 17.3-0.57 2.91-1.2 5.79-1.86 8.68-0.19 0.8-0.37 1.61-0.56 2.43-0.36 1.56-0.73 3.12-1.1 4.68-0.96 4.14-1.47 7.87-1.27 12.2 5.78-1.23 5.78-1.23 10-5 0.67-1.66 1.34-3.33 2-5l2-1c0.73-1.98 1.4-3.98 2-6 0.99 0.33 1.98 0.66 3 1l-1-3 2-1c0.14-0.66 0.29-1.32 0.44-2 0.18-0.66 0.37-1.32 0.56-2 0.99-0.33 1.98-0.66 3-1 0.69-1.71 1.38-3.42 2.04-5.14 1.63-3.15 4.13-4.78 6.96-6.86 4.88 2.62 4.88 2.62 6 6 0.65 1.34 1.32 2.68 2 4h-4v2c0.99 0.33 1.98 0.66 3 1v2l2 1-5 2h5c0.55 5.63-1.05 8.39-4 13h-2c-0.27 0.58-0.55 1.17-0.83 1.77-1.15 2.19-2.41 4.02-3.92 5.98-0.53 0.69-1.06 1.39-1.61 2.11-0.81 1.06-0.81 1.06-1.64 2.14-1.02 1.35-2.04 2.71-3.06 4.06-0.49 0.65-0.98 1.3-1.49 1.98-1.45 1.95-2.82 3.95-4.2 5.96-0.74 0.99-1.49 1.98-2.25 3h-2c-0.27 0.57-0.53 1.14-0.8 1.73-3.49 6.61-8.54 11.8-14.2 16.5-3.85 3.4-7.07 7.45-10.4 11.4-1.25 1.41-1.25 1.41-3.63 3.35-2.56 0.12-2.56 0.12-5-1-3.78-4.07-5.99-8.64-8.31-13.6-0.39-0.84-0.78-1.67-1.19-2.53-5.63-12.2-10.1-24.9-13.9-37.9-0.92-3.08-1.8-5.29-3.6-7.99-0.53-2.05-0.53-2.05-0.94-4.31-0.82-3.98-2.21-7.06-4.06-10.7-0.78-2.44-1.48-4.9-2.18-7.37-0.8-2.58-1.77-5.02-2.82-7.51-1.91-4.63-3.13-9.29-4.29-14.2-1.54-6.38-3.54-12.5-5.88-18.7-0.9-2.47-1.71-4.97-2.52-7.48-0.62-1.83-1.25-3.66-1.87-5.49-0.29-0.92-0.57-1.84-0.86-2.8-1.83-5.18-3.42-7.94-8.38-10.5-1.72-0.72-3.45-1.39-5.2-2.01-0.67-0.25-1.34-0.49-2.03-0.74-1.83-0.62-3.68-1.16-5.53-1.7-1.37-0.41-2.74-0.83-4.1-1.24-0.71-0.22-1.41-0.43-2.13-0.65-3.9-1.18-7.78-2.4-11.6-3.67-0.74-0.22-1.48-0.45-2.24-0.68-2.07-0.7-2.07-0.7-5.32-2.32-1.24-3.05-1.3-4.27-0.06-7.31 0.35-0.56 0.7-1.12 1.06-1.69l-4-4c-3.12 0.65-3.12 0.65-4 3-0.6-0.33-1.2-0.66-1.81-1-2.24-1.21-2.24-1.21-5.19-1l-2-2 1-2c-1.97-2.52-2.97-2.99-6.19-3.69-1.39-0.15-1.39-0.15-2.81-0.31v-2c-0.72 0.06-1.44 0.12-2.19 0.19-3.34-0.23-5.08-1.32-7.81-3.19l1-7c0.99 0.33 1.98 0.66 3 1v-2c7.89 1.27 15.4 3.59 22.9 6.15 1.95 0.66 3.91 1.31 5.86 1.95 7.01 2.34 13.8 4.93 20.6 7.84 3.23 1.32 6.4 2.29 9.78 3.18 3.98 1.08 7.87 2.22 11.8 3.63 3.84 1.28 6.98 1.87 11.1 1.25 2.25-1.48 4.02-3.15 6-5 0.99-0.33 1.98-0.66 3-1 1.49-1.46 1.49-1.46 2.88-3.25 2.55-3.1 5.24-5.94 8.12-8.75l40-40c1.14-1.18 1.14-1.18 2.31-2.38 2.14-2.08 4.29-4 6.57-5.93 3.46-3 6.38-6.23 9.34-9.72 2.4-2.65 5.08-4.88 7.81-7.18 2.67-2.43 4.93-5.14 7.26-7.89 1.64-1.82 3.32-3.35 5.21-4.9 3.34-2.75 6.08-5.83 8.88-9.12 2.08-2.42 4.33-4.65 6.62-6.88l5-5c0.89-0.93 1.77-1.86 2.69-2.81 2.31-2.19 2.31-2.19 4.31-2.19 0.34-0.87 0.34-0.87 0.69-1.75 1.64-2.81 3.75-4.28 6.31-6.25l1-2h2c0.26-0.6 0.52-1.2 0.79-1.82 1.28-2.31 2.46-3.43 4.52-5.06 3.39-2.78 5.94-5.72 8.69-9.12 4.38-4.7 4.38-4.7 7.19-6.06 1.97-0.79 1.97-0.79 2.72-2.83 1.18-2.29 2.26-3.29 4.28-4.86 3.45-2.84 6.29-5.97 9.19-9.37 2.08-2.42 4.33-4.65 6.62-6.88 0.83-0.82 1.65-1.65 2.5-2.5l12.5-12.5c0.64-0.7 1.28-1.4 1.94-2.12 2.06-1.88 2.06-1.88 4.87-3.13 3.76-2.06 5.82-4.5 8.53-7.77 1.66-1.98 1.66-1.98 4.35-4.6 2.47-2.39 2.47-2.39 4.5-5.69 0.6-0.89 1.19-1.78 1.81-2.69h2c0.19-0.61 0.39-1.23 0.59-1.86 0.39-1.22 0.39-1.22 0.79-2.45 0.25-0.8 0.51-1.6 0.77-2.43 0.85-2.26 0.85-2.26 2.85-5.26 1-2 1.49-3.83 2-6zm-48 89c-1.82 1.95-3.54 3.97-5.25 6.02-2.41 2.72-5.13 4.98-7.91 7.32-1.71 1.54-3.06 3.09-4.46 4.91-2.38 2.75-2.38 2.75-5.26 4.13-3.74 1.94-5.61 4.3-8.27 7.51-1.83 2.08-3.73 3.83-5.85 5.61-3.45 2.93-6.36 6.09-9.29 9.53-3.91 4.5-8.18 8.55-12.7 12.4-3.43 2.95-6.3 6.14-9.22 9.59-1.81 2.01-3.72 3.72-5.78 5.47-3.49 2.96-6.45 6.17-9.41 9.65-2.08 2.41-4.31 4.63-6.59 6.85l-5 5c-1.14 1.18-1.14 1.18-2.31 2.38-2.14 2.08-4.29 4-6.57 5.93-4.64 4.02-8.59 8.52-12.4 13.3-2.27 2.82-4.59 5.16-7.39 7.43-2.86 2.36-4.34 4.26-5.31 7.94h-2c-1.53 1.55-1.53 1.55-3.12 3.56-2.47 2.91-4.96 5.48-7.88 7.94-3.49 2.96-6.44 6.16-9.4 9.64-5.6 6.53-5.6 6.53-9.6 7.86-3.71 3.46-6.41 7.29-6.75 12.4 0.43 7.13 3.43 13.8 5.96 20.4 2.1 5.63 3.87 11.4 5.66 17.1 0.33 1.05 0.65 2.1 0.99 3.18 0.67 2.15 1.34 4.3 2 6.45 2.23 7.07 4.95 13.7 8.14 20.4 0.54 1.22 1.09 2.44 1.62 3.66 0.46 0.98 0.91 1.96 1.38 2.96 0.45 1.01 0.91 2.01 1.38 3.04 1.44 2.58 1.44 2.58 4.31 3.18 1.14 0.08 1.14 0.08 2.31 0.16 1.37-7.83 2.52-15.7 3.54-23.6 0.3-2.26 0.65-4.51 1.05-6.75 0.4-2.65 0.28-4.2-0.59-6.7h2c2.84-10.7 5.45-21.1 6.45-32.1 0.6-3.12 1.2-3.87 3.55-5.87l1-3c2.06-1.19 2.06-1.19 4-2v-4c0.59-0.26 1.19-0.52 1.8-0.79 2.34-1.29 3.67-2.56 5.39-4.59 0.76-0.87 0.76-0.87 1.54-1.77 1.35-1.96 1.85-3.53 2.27-5.85h2c0.39-0.89 0.78-1.77 1.19-2.69 1.81-3.31 1.81-3.31 4.19-5.62 2.9-2.98 4.49-5.9 6.31-9.6 1.48-2.36 3.06-3.5 5.31-5.09 1.03-1.65 2.02-3.32 3-5 0.84-1.06 1.69-2.1 2.56-3.12 3.55-3.92 3.55-3.92 4.44-8.88l4-2v-4h3l3-6h2c0.25-0.55 0.51-1.11 0.77-1.68 0.52-1.09 0.52-1.09 1.04-2.2 0.34-0.71 0.68-1.43 1.02-2.17 1.17-1.95 1.17-1.95 4.17-3.95 1.05-1.64 2.04-3.31 3-5 1.08-1.58 1.08-1.58 2.19-3.19 1.99-2.53 1.99-2.53 1.81-4.81l4-2v-4c0.99-0.33 1.98-0.66 3-1 2.97-3.63 2.97-3.63 4-8 0.99-0.33 1.98-0.66 3-1 1.02-1.99 2.02-3.99 3-6l3-2c0.68-1.33 1.35-2.66 2-4l2-1c2.01-2.94 3-4.39 3-8 0.64-0.23 1.28-0.45 1.94-0.69 2.33-1.16 2.33-1.16 2.81-3.93 0.08-0.79 0.16-1.57 0.25-2.38 0.99-0.33 1.98-0.66 3-1 1.03-1.65 2.02-3.32 3-5 0.72-0.7 1.44-1.4 2.19-2.12 2.16-1.8 2.16-1.8 1.81-4.88h2v-2h2c0.08-0.95 0.16-1.9 0.25-2.88 0.37-1.54 0.37-1.54 0.75-3.12 1.94-1.06 1.94-1.06 4-2 0.7-1.65 1.37-3.32 2-5l3-2c1.94-3.92 3.13-7.7 2.69-12.1-0.23-0.64-0.46-1.28-0.69-1.94-4.23 0-7.94 4.34-11 7zm-112 170 1 2zm-34 128 1 2z" fill="#4DA4F6"/>
<path transform="translate(1085,382)" d="m0 0c1 2 1 2 0.44 5-0.15 0.99-0.29 1.98-0.44 3l2 2v4h-2c0.08 0.89 0.17 1.78 0.25 2.7 0.16 1.76 0.16 1.76 0.31 3.55 0.16 1.74 0.16 1.74 0.32 3.52 0.11 2.83-0.02 4.59-0.88 7.23-1.88 6.4-3.35 12.4-3.79 19.1-0.21 1.9-0.21 1.9-1.21 2.9 0.02 1.09 0.04 2.19 0.06 3.31-0.06 3.69-0.06 3.69-1.04 5.57-1.64 3.4-1.37 6.93-1.48 10.7-0.27 1.22-0.27 1.22-0.54 2.46-1.98 1.21-1.98 1.21-4 2l-1 2c-1.48 0.5-1.48 0.5-3 1-1.18 2.94-1.03 3.9 0 7l-1 2h-2l-1-1c-0.14 0.91-0.29 1.81-0.44 2.75-0.42 2.46-0.91 4.84-1.56 7.25h-3c-0.07 1.05-0.07 1.05-0.15 2.12-0.07 0.91-0.15 1.82-0.23 2.76-0.06 0.9-0.13 1.8-0.21 2.74-0.41 2.38-0.41 2.38-2.41 4.38-0.27-1.13-0.54-2.27-0.81-3.44-0.39-1.17-0.79-2.35-1.19-3.56-1.48-0.5-1.48-0.5-3-1v-2l-2-1h2c0.06-0.99 0.12-1.97 0.18-2.99 0.13-1.92 0.13-1.92 0.26-3.89 0.12-1.91 0.12-1.91 0.24-3.86 0.32-3.26 0.32-3.26 1.32-5.26h2l-1-10c-1.98-0.66-3.96-1.32-6-2-0.26 0.72-0.51 1.43-0.77 2.17-1.32 3.03-2.92 5.46-4.85 8.14-0.95 1.33-0.95 1.33-1.92 2.68-0.48 0.66-0.96 1.33-1.46 2.01-1.46-2.65-2-3.89-2-7-0.49 1.98-0.49 1.98-1 4l-8 1v4c-3 2-3 2-6 3l1 2c-3 1-6 2-9 3v3h-2v4h-3l-2 3 1 2-3 3 2 2c-0.47 0.43-0.95 0.87-1.44 1.31-1.8 1.71-1.8 1.71-2.56 4.69l-3 2c0.19 0.78 0.37 1.57 0.56 2.38 0.44 2.62 0.44 2.62-0.56 4.62-0.41-0.64-0.83-1.28-1.25-1.94-1.93-2.27-2.86-2.66-5.75-3.06l-1 7c-1.45 0.4-1.45 0.4-2.94 0.81-1.51 0.59-1.51 0.59-3.06 1.19l-1 3 4 2c-1.39 0.34-1.39 0.34-2.81 0.69-3.8 1.56-4.21 2.86-6.19 6.31-2.5 1.38-2.5 1.38-5 2-0.99-0.33-1.98-0.66-3-1v-2c-0.99-0.33-1.98-0.66-3-1l-1 1c-0.99-0.33-1.98-0.66-3-1l1-5c-0.99-0.33-1.98-0.66-3-1-0.69-2.06-0.69-2.06-1-4l4-2v-3c3.47-0.5 3.47-0.5 7-1l-2-4c3.22-3.87 6.15-4.88 11-6l-2-4c2.48-0.5 2.48-0.5 5-1 0.17-0.64 0.34-1.28 0.52-1.93 0.24-0.83 0.48-1.66 0.73-2.51 0.35-1.23 0.35-1.23 0.7-2.49 0.35-0.69 0.69-1.37 1.05-2.07 2.05-0.64 2.05-0.64 4-1 0.7-1.65 1.36-3.32 2-5 2.06-1.69 2.06-1.69 4-3l1-2c2.06-0.62 2.06-0.62 4-1-0.99-0.5-0.99-0.5-2-1 0.5-1.98 0.5-1.98 1-4h5v-3h4v-7h2c-0.14-0.56-0.29-1.11-0.44-1.69-0.59-2.42-1.08-4.86-1.56-7.31-1.11-0.19-1.11-0.19-2.25-0.38-2.55-0.57-4.48-1.36-6.75-2.62-0.5 1.49-0.5 1.49-1 3v-4c-0.99 0.33-1.98 0.66-3 1-0.99 0.33-1.98 0.66-3 1v-7c3.01-0.93 3.87-1.04 7 0 1.19 2.06 1.19 2.06 2 4l2-2v-3l1-1-2-2 5-6c2.48 1.98 2.48 1.98 5 4-0.25-0.54-0.5-1.07-0.75-1.62-0.25-2.38-0.25-2.38 1.31-5.57 2.44-2.81 2.44-2.81 5.69-3.69 1.36-0.06 1.36-0.06 2.75-0.12l1-6h3l1-3-5 1-1-2c1.7-0.8 1.7-0.8 3.44-1.62 4.01-2 7.62-4.39 11.3-6.93 2.18-1.4 4.36-2.57 6.69-3.7 3.52-1.49 3.52-1.49 5.56-3.75 2.62-0.12 2.62-0.12 5 0 0.02-0.58 0.04-1.15 0.06-1.75 1.48-3.55 4.65-4.62 7.94-6.25 0.67-0.34 1.34-0.68 2.03-1.04 1.35-0.68 2.7-1.35 4.06-2.01 1.7-0.84 3.34-1.8 4.97-2.76 3.74-1.51 6.08-1.17 9.94-0.19zm-2 25v5l2-2-2-3z" fill="#4A9CF4"/>
<path transform="translate(1073,457)" d="m0 0h4c-0.11 2.08-0.24 4.17-0.38 6.25-0.06 1.16-0.13 2.32-0.21 3.52-0.41 3.23-0.41 3.23-1.39 5.16-1.56 3.16-1.68 6.54-2.02 10-0.74 7.42-0.74 7.42-2 10.5-1.51 3.93-1.61 7.92-1.94 12.1-0.79 8.91-2.19 17.4-4.81 26-2.21 7.32-3.16 14.7-4.13 22.2-0.85 6.6-1.99 13-3.36 19.5-2.03 10.1-3.82 20.5-4.45 30.8-0.31 2.01-0.31 2.01-1.27 4.29-1.53 4.02-1.81 8.11-2.25 12.4-0.41 3.5-0.79 5.35-2.79 8.35-0.42 1.94-0.42 1.94-0.56 4.05-0.08 0.78-0.15 1.56-0.23 2.37-0.07 0.81-0.14 1.62-0.21 2.46-0.14 1.6-0.28 3.2-0.44 4.8-0.06 0.71-0.12 1.42-0.18 2.15-0.38 2.17-0.38 2.17-1.34 4.5-1.26 3.23-1.76 6.31-2.29 9.74-0.16 1.01-0.16 1.01-0.32 2.04-0.23 1.43-0.45 2.85-0.66 4.28-0.33 2.14-0.66 4.28-1 6.42-1.12 7.21-2.06 14.4-2.44 21.6-0.36 2.79-1.25 4.96-2.33 7.54-0.39 2.49-0.72 4.99-1 7.5-0.51 4.57-1.26 8.27-3 12.5-0.34 2.6-0.5 5.17-0.66 7.79-0.34 2.21-0.34 2.21-2.34 4.21-0.99-0.33-1.98-0.66-3-1v-3h-2c1-2 1-2 4-3l2 1c-0.35-0.56-0.7-1.11-1.06-1.69-1.17-2.88-0.61-4.32 0.06-7.31-0.34-2.02-0.34-2.02-1-4-0.14-0.87-0.29-1.73-0.44-2.62-0.38-2.55-0.38-2.55-2.56-4.38-1-3-1-3-1.5-5.62-0.26-2.32-0.26-2.32-1.5-3.38-0.5 1.98-0.5 1.98-1 4h-3v-4c-0.99-0.33-1.98-0.66-3-1-0.2-6.05-0.2-6.05 0-8l2-2c0-1.81-0.01-3.63-0.05-5.44 0.13-6.27 0.53-13.3 4.05-18.6 0.2-1.99 0.2-1.99 0.06-4.06-0.06-3.94-0.06-3.94 0.94-5.94 0.28-2.92 0.45-5.84 0.62-8.76 0.42-3.58 1.39-6.78 2.38-10.2 0.38-2.49 0.71-4.99 1-7.5 0.43-3.71 0.89-7.13 1.97-10.7 1.71-6.3 2.18-12.8 2.89-19.2 0.12-1.04 0.24-2.08 0.36-3.15 0.1-0.94 0.2-1.88 0.31-2.84 0.47-2.54 1.26-4.3 2.47-6.55 0.41-2.29 0.41-2.29 0.56-4.62 0.34-4.19 0.34-4.19 1.44-6.38 0.16-1.46 0.28-2.91 0.38-4.38 0.35-4.01 1.08-7.72 2.12-11.6 1.21-4.55 1.92-8.86 2.19-13.6 0.31-2.45 0.31-2.45 1.27-5.69 1.16-4.2 1.67-8.25 2.1-12.6 0.81-7.94 0.81-7.94 1.94-10.2 0.18-1.39 0.32-2.79 0.44-4.19 0.42-4.13 1.41-7.82 2.56-11.8 0.49-3.14 0.93-6.28 1.34-9.43 0.66-2.57 0.66-2.57 3.66-4.57 2.06 0.06 2.06 0.06 4 1 1.25 2.56 1.25 2.56 2 5-0.04-0.91-0.08-1.81-0.12-2.75 0.16-4.29 1.12-6.25 4.12-9.25 1.22-3.18 2-5.58 2-9h2v2h2c-0.21-0.89-0.41-1.77-0.62-2.69-0.41-3.54 0.05-5.18 1.62-8.31 0.99 0.33 1.98 0.66 3 1l1-4zm-40 238 1 2z" fill="#4DA4F6"/>
<path transform="translate(829,756)" d="m0 0c2 2 2 2 2 5 0.5 0.99 0.5 0.99 1 2l-2 2c-1.08 4.45-1.25 6.04 1 10 0.89 1.01 1.78 2.01 2.69 3 2.31 3 2.31 3 2.12 5.38-0.27 0.53-0.53 1.07-0.81 1.62 0.99 0.33 1.98 0.66 3 1l1-2c1.23 6.16 0.73 11.8 0 18 1.64-0.5 1.64-0.5 3.31-1 5.64-1.53 5.64-1.53 8.69 0v2c-0.99 0.5-0.99 0.5-2 1v4c-0.64 0.12-1.28 0.25-1.94 0.38-0.68 0.2-1.36 0.41-2.06 0.62-0.5 0.99-0.5 0.99-1 2-3.06 0.62-3.06 0.62-6 1l-1-3c-1.98 0.5-1.98 0.5-4 1l-1-2c-2.32 2.76-2.32 2.76-1.62 5.5 0.2 0.83 0.41 1.65 0.62 2.5v3l2 3-2 3c0.99 0.5 0.99 0.5 2 1-0.5 1.49-0.5 1.49-1 3-0.99-0.33-1.98-0.66-3-1l1 4c-4.05 1.16-6.22 0.84-10-1-2.36 2.36-2.49 3.78-3 7l-2-2h-3v-4l-1 6c-3.11-3.54-4.41-7.54-5.88-11.9-0.52-1.53-1.04-3.06-1.57-4.59-0.25-0.75-0.51-1.51-0.78-2.29-1.09-3.09-2.3-6.13-3.52-9.18-1.46-3.71-2.64-7.28-3.44-11.2-0.45-3.81-0.45-3.81-2.81-5.81-0.12-3.12-0.12-3.12 0-6l2 2v-3h-2c0.6-3.36 1.85-5.38 4-8 0.41 1.13 0.83 2.27 1.25 3.44 1.29 3.66 1.29 3.66 3.81 4.31 0.64 0.08 1.28 0.16 1.94 0.25l2 3h1c1.56 1.19 1.56 1.19 3 3 0.19 2.69 0.19 2.69 0 5 1.6-1.19 1.6-1.19 3-3 0.31-3.12 0-5-1-8h3l1-2v2l5 1c0.05-0.63 0.1-1.26 0.15-1.91 0.24-2.88 0.48-5.77 0.73-8.65 0.11-1.49 0.11-1.49 0.23-3 0.47-5.38 1.01-10.4 2.89-15.4 2.12-1.44 2.12-1.44 4-2zm-20 76 1 2z" fill="#4B9CF4"/>
<path transform="translate(1016,694)" d="m0 0h1l-1 7h3l1-5 2 1v5h2c0.12 0.7 0.25 1.4 0.38 2.12 0.58 2.93 0.58 2.93 1.62 5.88 1.63 4.89 2.06 7.96 1 13 0.49 1.49 0.49 1.49 1 3-2.47 0.5-2.47 0.5-5 1l1 1 2 3c0.99 0.5 0.99 0.5 2 1 0.29 7.43 0.29 7.43-2 11-0.49-1.98-0.49-1.98-1-4l-5-1 1 2c-0.94 2.12-0.94 2.12-2 4h-3c-0.54 3.06-1 5.89-1 9-0.32 2.34-0.65 4.67-1 7l-2-4-1 6 5 1c-0.16 0.6-0.33 1.2-0.5 1.81-0.61 2.3-0.61 2.3-0.5 5.19h-4v5h-17c1.07 1.3 1.07 1.3 3.56 1.06 0.81-0.02 1.61-0.04 2.44-0.06v12h-2v-2c-1.67-0.19-1.67-0.19-3.38-0.38-3.62-0.62-3.62-0.62-5.62-2.62 3.47-0.5 3.47-0.5 7-1v-2c-0.57-0.13-1.13-0.27-1.71-0.4-0.74-0.18-1.47-0.36-2.23-0.54-0.73-0.17-1.46-0.35-2.21-0.52-1.85-0.54-1.85-0.54-2.85-1.54-0.5 0.99-0.5 0.99-1 2-0.99-0.33-1.98-0.66-3-1v-5c5.61-0.83 10.4-1.07 16 0-0.04-0.87-0.08-1.73-0.12-2.62 0.12-3.38 0.12-3.38 1-5.93 1.49-4.6 2.31-9.26 3.18-14 0.35-1.86 0.69-3.71 1.04-5.57 0.15-0.81 0.3-1.63 0.45-2.47 1.23-6.57 1.23-6.57 1.99-9.44 0.5-2.15 0.68-4.19 0.84-6.4 0.49-5.88 1.29-11.7 2.12-17.6 0.13-0.93 0.26-1.87 0.4-2.83 0.12-0.88 0.25-1.76 0.38-2.67 0.12-0.79 0.23-1.59 0.35-2.41 0.37-2.09 0.37-2.09 1.37-5.09l4 1v-3z" fill="#4A9CF4"/>
<path transform="translate(1019,737)" d="m0 0c5.88 0.88 5.88 0.88 7 2-0.04 2.58-0.15 5.12-0.31 7.69-0.07 1.14-0.07 1.14-0.15 2.3-1.24 18.4-1.24 18.4-3.54 23-0.09 1.44-0.13 2.88-0.14 4.32-0.02 0.87-0.04 1.73-0.06 2.62-0.03 1.81-0.05 3.62-0.05 5.43-0.19 6.47-1.45 9.76-5.75 14.6-4 2-8.99 1.51-13.2 0.43-1.49-0.5-2.97-1.03-4.44-1.58-2.42-0.89-4.84-1.55-7.32-2.23-5.1-1.49-9.48-3.86-14-6.62v-3l-2-2h2v-2h3v-4c-2.03-2.16-2.03-2.16-5-4v-3h3v-4c1.65 0.42 3.29 0.86 4.94 1.31 0.91 0.25 1.83 0.49 2.77 0.74 0.76 0.31 1.51 0.63 2.29 0.95l1 3h-6l1 5c1.49-0.5 1.49-0.5 3-1v-2l2 1-1 2 8 1 1 4c-1.98 0.5-1.98 0.5-4 1l5 2v2h2c-0.08-0.63-0.17-1.25-0.25-1.9-0.11-0.82-0.21-1.63-0.31-2.48-0.11-0.81-0.21-1.62-0.32-2.46-0.12-2.16-0.12-2.16 0.88-4.16h-6v-2c2.1-0.17 4.21-0.33 6.31-0.5 1.17-0.09 2.35-0.19 3.55-0.28 2.05-0.14 4.09-0.22 6.14-0.22l1-5 4-1v-3l1-2h-6l1-8 2 2h1c-0.21-0.91-0.41-1.82-0.62-2.75-0.41-3.49-0.04-4.32 1.62-7.25v-4h4c1.01-3.05 1.01-3.05 0-6z" fill="#4DA5F6"/>
<path transform="translate(655,640)" d="m0 0c0.99 0.33 1.98 0.66 3 1 1 3 1 3 1 6l1 2h-5l1 1c0.43 0.47 0.87 0.95 1.31 1.44 1.79 1.65 3.48 2.57 5.69 3.56v2c0.99 0.33 1.98 0.66 3 1l1 2h5v2h5c0.5-1.49 0.5-1.49 1-3 0.93 0.02 1.86 0.04 2.81 0.06 3.21 0.1 3.21 0.1 6.19-1.06v-2l4 1v3l2 1-4-1-1 6c2.97 0.99 5.94 1.98 9 3v2c0.93-0.02 1.86-0.04 2.81-0.06 3.19 0.06 3.19 0.06 6.19 1.06 0.75 2.1 1 3.77 1 6h3c0.62 0.39 1.24 0.78 1.88 1.19 0.7 0.27 1.4 0.53 2.12 0.81 2.75-1.28 2.75-1.28 5-3l4 5c-0.46 1.14-0.46 1.14-0.94 2.31-0.74 1.88-1.42 3.78-2.06 5.69-5.15-1.01-9.96-2.28-14.8-4.21-3.35-1.22-6.8-2.07-10.2-2.95-2.97-0.86-5.83-1.91-8.71-3.01-3.98-1.5-8-2.87-12-4.27-6.29-2.19-12.6-4.41-18.8-6.73-3.39-1.17-6.84-2.11-10.3-3.02-2.38-0.92-3.51-1.81-5.09-3.81-0.74-2.31-1.42-4.64-2-7l4-2c-2.48-0.99-2.48-0.99-5-2l3-3c0.74 0.39 1.49 0.78 2.25 1.19 0.91 0.27 1.82 0.53 2.75 0.81 2.33-1.26 2.33-1.26 4-3l-1-2 1-2c-2.97-0.5-2.97-0.5-6-1v-1h10v5h2c-0.19-0.8-0.37-1.61-0.56-2.44-0.15-0.84-0.29-1.69-0.44-2.56l1-1z" fill="#4B9DF5"/>
<path transform="translate(865,695)" d="m0 0c3.03 2.02 4.38 3.59 5.83 6.91 0.17 2.09 0.17 2.09-1.19 4.31-0.65 0.75-1.29 1.5-1.95 2.28-2.32 2.74-4.22 5.22-5.69 8.5 1.36 0.34 1.36 0.34 2.75 0.69 6.27 1.77 12.4 4.4 18.2 7.31-0.31 0.76-0.62 1.53-0.94 2.31-0.74 1.88-1.42 3.78-2.06 5.69-2.48 0.5-2.48 0.5-5 1l2 8c-6.27-0.49-11.2-1.58-17-4v-2l-8 1-1 4v-3h-2l-1-4-4-1 4-3c-2.97-0.33-5.94-0.66-9-1l3-3h-2l1-3h5v-2l-4-2h2v-3h2l1-2c0.43 0.5 0.87 0.99 1.31 1.5 1.69 1.83 1.69 1.83 4.69 1.5v-4l-2-1 2-4h2l1-4 2 2h3l-1-7 3-2 2 1v-3z" fill="#4CA2F5"/>
<path transform="translate(871,511)" d="m0 0c3.38 0.25 3.38 0.25 7 1 1.31 2 1.31 2 2 4 0.99 0.5 0.99 0.5 2 1v2c-0.61 0.25-1.23 0.51-1.86 0.77-0.81 0.34-1.62 0.69-2.45 1.04-1.2 0.51-1.2 0.51-2.43 1.02-2.26 1.01-2.26 1.01-3.62 2.62-2.02 1.9-4.22 2.7-6.77 3.73-4.22 1.85-8.01 4.59-11.9 7.08-2.47 1.44-4.21 2.29-6.99 2.74v2c-0.55 0.22-1.09 0.44-1.65 0.66-5.16 2.17-9.66 4.72-14.2 7.97-2.14 1.37-2.14 1.37-4.72 2.36-2.53 1.06-3.52 2.1-5.42 4.01-1.95 1.08-3.93 2.09-5.94 3.06-1.04 0.51-2.08 1.02-3.15 1.54-0.96 0.46-1.92 0.92-2.91 1.4-1.33 0.66-2.67 1.33-4 2-1.18-0.96-1.18-0.96-2.38-1.94-2.42-2.04-2.42-2.04-4.62-3.06l1-3c0.99-0.5 0.99-0.5 2-1 3.01-2.04 3.01-2.04 5-5 2.31 0.33 4.62 0.66 7 1v-8h2l2 3c1.49-0.5 1.49-0.5 3-1v-2h2l1-2h6l-1-4c3.95-0.18 6.6-0.09 10 2l1-2v2l4-1c-0.99-0.33-1.98-0.66-3-1v-2h2v-2h2c0.5-1.49 0.5-1.49 1-3 3.78-2.32 6.56-3.39 11-3l1-2c0.99-0.33 1.98-0.66 3-1v-2c3-1 3-1 6-1 0.99-2.31 1.98-4.62 3-7 0.99 1.49 0.99 1.49 2 3l2-1 1-3c-0.99-0.5-0.99-0.5-2-1z" fill="#4A9CF4"/>
<path transform="translate(717,603)" d="m0 0 8 6c-2.85 2.13-5.29 3.79-8.38 5.44-3.68 2.01-7.15 4.2-10.6 6.56-2.32 1.44-4.66 2.82-7.07 4.12-4.33 2.35-8.35 4.83-12.3 7.76-2.39 1.67-4.98 2.86-7.61 4.12-1.25 0.72-2.5 1.45-3.75 2.19-3.25 1.81-3.25 1.81-5.25 1.81v-2h-8c-1.12-3.75-1.12-3.75 0-6 0.78 0.19 1.57 0.37 2.38 0.56 2.59 0.7 2.59 0.7 4.62-0.56 2.01 0.28 4.01 0.61 6 1 0.54-3.06 1-5.89 1-9 3.38-0.84 5.67-1.11 9 0v-3h2l1-2c0.98-1.02 1.98-2.02 3-3-0.99 0.33-1.98 0.66-3 1l-1-3c2.48 0.5 2.48 0.5 5 1l1-3c2.48 0.5 2.48 0.5 5 1v2l6 3c0.43-1.11 0.43-1.11 0.88-2.25 0.94-2.32 1.97-4.53 3.12-6.75l6 3c0.31-1.28 0.62-2.56 0.94-3.88 0.54-2.22 1.03-4.07 2.06-6.12z" fill="#4B9CF4"/>
<path transform="translate(865,695)" d="m0 0c3.02 2.01 4.38 3.58 5.83 6.89 0.25 3.16-1.17 4.41-3.14 6.8-0.64 0.79-1.27 1.57-1.93 2.38-1.76 1.93-1.76 1.93-3.76 2.93-2.12-0.44-2.12-0.44-4-1v3h2v2c-2 1.62-2 1.62-4 3l1 1-4 2 1 3c-1 3-1 3-3 4l1 2-1 3 2 1-2 4v-3h-2l-1-4-4-1 4-3c-2.97-0.33-5.94-0.66-9-1l3-3h-2l1-3h5v-2l-4-2h2v-3h2l1-2c0.43 0.5 0.87 0.99 1.31 1.5 1.69 1.83 1.69 1.83 4.69 1.5v-4l-2-1 2-4h2l1-4 2 2h3l-1-7 3-2 2 1v-3z" fill="#4B9CF5"/>
<path transform="translate(1030,659)" d="m0 0 4 4-3 3 1 1c0.04 2 0.04 4 0 6-0.99 0.33-1.98 0.66-3 1l-1 6 4 2v5h2l1-3c1.18 2.35 1.17 3.88 1.19 6.5 0.01 0.79 0.03 1.59 0.04 2.41-0.23 2.09-0.23 2.09-2.23 4.09v-4c-2.47 0.5-2.47 0.5-5 1l-1 3-2-3c-2.05-1.19-2.05-1.19-4-2 0.33-0.97 0.66-1.94 1-2.94 1.26-3.87 0.69-6.02 0-10.1 0.99-0.33 1.98-0.66 3-1l-3-2c-1.31-4.38-1.31-4.38 0-7l3-2 1-3h2l1-5z" fill="#4A9BF4"/>
<path transform="translate(521,976)" d="m0 0c0.7 0.33 1.4 0.66 2.12 1 2.84 1.16 2.84 1.16 5.88 1 3.18 0 5.15 0.66 8 2v2c-0.71 0.01-1.42 0.03-2.15 0.04-3.26 0.08-6.53 0.18-9.79 0.27-1.67 0.04-1.67 0.04-3.38 0.07-8.04 0.26-15.9 0.52-21.7 6.62-1.66 1.01-3.33 2.01-5 3l-2 2c-0.99-3.08-1.08-4.94 0-8 2.97-3.56 5.74-5.84 10.4-6.44 2.62 0.44 2.62 0.44 3.62 1.44l2-2c2.57-0.6 2.57-0.6 5.56-1.06 3.53-0.3 3.53-0.3 6.44-1.94z" fill="#1B477F"/>
<path transform="translate(960,775)" d="m0 0c1.5 1.38 1.5 1.38 3 3v2l5-1v-2c0.6 0.23 1.2 0.45 1.81 0.69 0.72 0.1 1.45 0.2 2.19 0.31 0.47-0.5 0.95-0.99 1.44-1.5 0.51-0.5 1.03-0.99 1.56-1.5 2.69 0.31 2.69 0.31 5 1v2l2 1-2 4c-0.99-0.33-1.98-0.66-3-1v2l2 2h-2l-1 3c-14.4-5.67-14.4-5.67-16.6-10.3-0.19-1.33-0.19-1.33-0.38-2.69l1-1z" fill="#4A9FF3"/>
<path transform="translate(873,763)" d="m0 0c0.99 0.33 1.98 0.66 3 1v2h2v-2c3 1 3 1 5 4l-2 2c0.8 0.27 1.61 0.54 2.44 0.81 0.84 0.39 1.69 0.79 2.56 1.19 1.69 5.06 1.69 5.06 2 7l-2 2c-0.5 1.01-0.99 2.02-1.5 3.06-1.5 2.94-1.5 2.94-3.5 3.94l-2-2h2v-3h-5c1-2 1-2 3-3-0.5-0.45-0.99-0.91-1.5-1.38-1.5-1.62-1.5-1.62-1.5-3.62h4l-2-3c-0.99 0.5-0.99 0.5-2 1v-5l-4-2 1-3z" fill="#4B9CF5"/>
<path transform="translate(787,693)" d="m0 0c2.47 1.15 4.05 2.05 6 4-0.64 0.7-1.28 1.4-1.94 2.12-2.22 3.11-2.71 5.13-3.06 8.88l-2-1c-0.99 1.49-0.99 1.49-2 3-0.64-0.5-1.28-0.99-1.94-1.5-1.77-1.6-1.77-1.6-3.06-1.5l-2 2 3 3-1 2-8-1v-1h5v-2l-4-2 2-1c-1.83-3.17-1.83-3.17-5-5 0.99-0.33 1.98-0.66 3-1l1-2c2.56-0.62 2.56-0.62 5-1l1 3 5 1v3h2v-4l2-2-2-2c0.38-2.12 0.38-2.12 1-4z" fill="#4B9CF5"/>
<path transform="translate(1082 381)" d="m0 0c1.67 0.37 1.67 0.37 3.38 0.75 1 2 1 2 0.43 5-0.14 0.99-0.29 1.98-0.43 3 0.66 0.66 1.31 1.32 2 2v4h-2v5h-2c-0.44-1.61-0.44-1.61-0.88-3.25-0.85-2.84-1.69-5.19-3.12-7.75-0.91 0.04-1.82 0.08-2.76 0.13-3.12-0.13-4.63-0.52-7.24-2.13 0.32-0.99 0.66-1.98 1-3 2.37-1.06 2.37-1.06 5-2 3-2 3-2 6.62-1.75z" fill="#4DA4F6"/>
<path transform="translate(1015,698)" d="m0 0v5c0.99 0.33 1.98 0.66 3 1 0.51 6.91-1.95 11.6-6 17v3h-4c0.47-8.47 1.25-16.7 3-25 3-1 3-1 4-1z" fill="#4DA3F5"/>
<path transform="translate(832,730)" d="m0 0 1 4h2v-2l4 1c-0.99 0.5-0.99 0.5-2 1l3 9c-1.98 0.33-3.96 0.66-6 1l1 3 2 1h-3l1 4h-3l-2-7v5h-2c-0.33-6.89 0.52-12.5 3-19l1-1z" fill="#4B9CF5"/>
<path transform="translate(857,1054)" d="m0 0h2l1 9c0.9-0.68 0.9-0.68 1.81-1.38 4.93-3.66 4.93-3.66 7.88-3.24 0.76 0.2 1.52 0.41 2.31 0.62l2 6c-1.94-0.38-1.94-0.38-4-1l-1-2h-2c-1.24 1.5-2.48 3.01-3.7 4.53-1.59 1.8-3.01 2.76-5.3 3.47l-2-1-1 4h-3l1-5h2l1-4-2-1v-4h2l1-5z" fill="#1B4A83"/>
<path transform="translate(938 749)" d="m0 0c0.89 0.37 1.77 0.75 2.69 1.13 1.33 0.56 1.33 0.56 2.69 1.12 4.23 1.85 4.23 1.85 5.43 4.38 0.88 2.63 0.88 2.63 0.88 5.63l-4 2c0.78-0.06 1.56-0.13 2.37-0.19 0.87 0.06 1.73 0.12 2.63 0.19 0.99 1.48 0.99 1.48 2 3l-4 1v-2l-5 1-1-3c-2-1.21-2-1.21-4-2 1-2 1-2 3-5l-1-1v-2l-4-1v-2c-0.99-0.33-1.98-0.66-3-1 2-1 2-1 4.31-0.26z" fill="#4B9CF5"/>
<path transform="translate(1082,417)" d="m0 0c1.13 3.39 0.79 5.55 0 9-0.18 1.42-0.34 2.83-0.5 4.25-0.5 3.75-0.5 3.75-1.5 4.75 0.02 1.09 0.04 2.19 0.06 3.31-0.06 3.48-0.35 4.81-2.06 7.69v2c-2.47-0.99-2.47-0.99-5-2 0.04-0.93 0.08-1.86 0.12-2.81 0.15-3.35 0.15-3.35-2.12-6.19l1-2h2v-2l5-2v-3.31c0-7.07 0-7.07 3-10.7z" fill="#4DA4F6"/>
<path transform="translate(912,489)" d="m0 0 4 2c-1.75 3.88-1.75 3.88-4 5h3l1 3c-0.64 0.18-1.28 0.36-1.93 0.55-0.83 0.25-1.66 0.5-2.51 0.76-0.82 0.25-1.64 0.49-2.49 0.74-1.03 0.47-1.03 0.47-2.07 0.95l-1 3c-2.44 1.75-2.44 1.75-5 3l-2-1c0.5-1.49 0.5-1.49 1-3h2l1-3 1-2h3c-0.66-0.6-1.32-1.2-2-1.81-2-2.19-2-2.19-2-5.19h2l2 2 1-3h4v-2z" fill="#4A9BF3"/>
<path transform="translate(1008,777)" d="m0 0c2.36 0.94 4.7 1.93 7 3v6c0.99 0.33 1.98 0.66 3 1 1.61 2.33 2.1 3.43 1.62 6.25-0.3 0.87-0.3 0.87-0.62 1.75l-2-2v-3c-1.09-0.12-2.19-0.25-3.31-0.38-3.69-0.62-3.69-0.62-6.69-2.62-0.99-0.33-1.98-0.66-3-1l-2-1v-3c0.93 0.28 0.93 0.28 1.88 0.56 2.16 0.68 2.16 0.68 4.12-0.56l-1-1c-0.99 0.5-0.99 0.5-2 1l-3-2 6-3z" fill="#4B9CF5"/>
<path transform="translate(789,560)" d="m0 0c3.86-0.22 6.49 0.4 10 2v2c0.99 0.33 1.98 0.66 3 1-1.88 1.21-3.78 2.39-5.69 3.56-1.58 0.99-1.58 0.99-3.2 2.01-3.38 1.55-4.65 1.6-8.11 0.43l1-2-3-2v-2h5l1-5z" fill="#4A9BF4"/>
<path transform="translate(655,1036)" d="m0 0c1.12 3.3 0.9 5.05-0.44 8.25-0.28 0.71-0.57 1.41-0.87 2.14-0.23 0.53-0.45 1.06-0.69 1.61h-2v2c0.99 0.33 1.98 0.66 3 1-0.99 0.49-0.99 0.49-2 1l-1 2-4-1v-3h-2l2-12h7l1-2z" fill="#4898F0"/>
<path transform="translate(1030,659)" d="m0 0 4 4-3 3 1 1c0.04 2 0.04 4 0 6-0.99 0.33-1.98 0.66-3 1v2c-1.98 0.33-3.96 0.66-6 1-1.12-5.75-1.12-5.75 0-8l3-2 1-3h2l1-5z" fill="#4B9CF5"/>
<path transform="translate(573,1114)" d="m0 0 2 2 1-2 1 1c2.32 0.28 4.64 0.45 6.97 0.62 0.67 0.13 1.34 0.25 2.03 0.38 0.5 0.99 0.5 0.99 1 2h-26v2h-5v2c-2-1-2-1-4-4 5.45-0.49 5.45-0.49 11-1v-3c3.68-0.95 6.34-1.09 10 0z" fill="#1B467C"/>
<path transform="translate(1084,1104)" d="m0 0 2 3 2 2c-0.38 2.62-0.38 2.62-1 5l-1-2h-2v-2h-2v-2h-2v2h-4l-2 4c-2.97-0.49-2.97-0.49-6-1v-4c0.76-0.1 1.53-0.21 2.31-0.31 2.71-0.45 2.71-0.45 4.19-2.19 2.66-2.66 5.9-2.5 9.5-2.5z" fill="#1B477E"/>
<path transform="translate(630 1103)" d="m0 0c2.31 1.12 2.31 1.12 3.69 3.5 0.62 2.62 0.62 2.62-0.38 5.62-0.99-0.66-1.98-1.31-3-2-4.57 1.83-4.57 1.83-7.37 5.69-0.21 0.77-0.42 1.53-0.63 2.31h-3c-0.33 0.67-0.66 1.32-1 2 0.62-2.96 1.26-4.38 3-7 0.16-1.17 0.16-1.17 0.31-2.37 1.16-4.4 3.69-7.53 8.38-7.75z" fill="#1B467D"/>
<path transform="translate(835,787)" d="m0 0 5 1-2 18-5 1v-2c-0.99-0.33-1.98-0.66-3-1 0.8-0.12 1.61-0.25 2.44-0.38 0.84-0.2 1.69-0.41 2.56-0.62l1-2c-0.99-0.33-1.98-0.66-3-1 0.19-0.62 0.37-1.24 0.56-1.88 0.68-2.16 0.68-2.16-0.56-4.12 0.61-2.35 1.27-4.69 2-7z" fill="#4BA2F4"/>
<path transform="translate(796,792)" d="m0 0c2.63 1.87 3.86 3.3 4.49 6.49 0.24 2.51 0.41 5 0.51 7.51h2v-2l2 1v8h-2v2h-2c-1.04-2.89-2.05-5.79-3.06-8.69-0.3-0.81-0.59-1.63-0.9-2.47-2.58-7.52-2.58-7.52-1.04-11.8z" fill="#4CA2F5"/>
<path transform="translate(971,1108)" d="m0 0 1 7c-0.99-0.33-1.98-0.66-3-1-0.69-2.06-0.69-2.06-1-4-3.99 1.29-5.62 2.6-8 6h-2v2h-2v2l-4-1c3.75-4.88 3.75-4.88 6-6 0.25-0.8 0.5-1.61 0.75-2.44 1.25-2.56 1.25-2.56 4.06-4 3.54-0.62 5.06-0.22 8.19 1.44z" fill="#1B477E"/>
<path transform="translate(805,817)" d="m0 0 2 1v1l3-2c0.43 0.8 0.87 1.61 1.31 2.44 1.49 2.84 1.49 2.84 4.69 3.56v3h-4c-0.99 2.64-1.98 5.28-3 8-1.96-2.95-2.76-5.12-3.69-8.5-0.27-0.96-0.54-1.92-0.82-2.91-0.49-2.59-0.49-2.59 0.51-5.59z" fill="#4CA0F5"/>
<path transform="translate(1092,1034)" d="m0 0h2v10h-2v8h2v6h3l-1 3v-2h-3v-4c-0.99 0.33-1.98 0.66-3 1-2.85-5.85-1.58-11 0-17 0.64-1.68 1.3-3.35 2-5z" fill="#1B4880"/>
<path transform="translate(683,953)" d="m0 0c3 2 3 2 3.67 4.11 0.42 3.7 0.55 7.36 0.58 11.1 0.02 0.72 0.04 1.45 0.06 2.19 0.02 2.1 0.02 2.1-0.31 5.62l-3 2c-0.97-5.1-1.34-10.1-1.62-15.3-0.06-0.83-0.11-1.65-0.16-2.5-0.12-2.06-0.17-4.12-0.22-6.19l1-1z" fill="#4BA0F4"/>
<path transform="translate(789 1033)" d="m0 0c1.28 0.01 2.56 0.02 3.88 0.03 0.99 0.01 1.98 0.02 3 0.03 0.65 1.32 1.32 2.64 2 4h-3c-2.21 0.11-4.42 0.24-6.63 0.38-1.17 0.07-2.34 0.14-3.54 0.21-0.93 0.14-1.87 0.27-2.83 0.41-0.34 0.66-0.66 1.32-1 2-1-1-1-1-1.07-3.56 0.02-0.8 0.04-1.61 0.07-2.44 3-1.5 5.79-1.09 9.12-1.06z" fill="#4899F2"/>
<path transform="translate(858,713)" d="m0 0h4v4l5 1v3l-8 2v3l-5 1-1-3 2-2-1-3c1.98-0.33 3.96-0.66 6-1v-2h-2v-3z" fill="#4DA4F6"/>
<path transform="translate(552,1010)" d="m0 0 4 2v2h-2v6l2-3c2 2 2 2 2 5l6-3c-0.69 1.94-0.69 1.94-2 4-2.31 0.94-2.31 0.94-5 1-4.6-2.19-4.6-2.19-6-5-0.23-6.53-0.23-6.53 1-9z" fill="#1B4982"/>
<path transform="translate(1106,1050)" d="m0 0c-0.6 3.85-1.77 6.86-3.56 10.3-0.46 0.89-0.91 1.77-1.38 2.68-0.35 0.66-0.7 1.33-1.06 2.01l-1-4h-2c0.28-3.98 0.79-5.75 3.38-8.88 2.62-2.12 2.62-2.12 5.62-2.12z" fill="#4B9FF4"/>
<path transform="translate(819,1090)" d="m0 0 2 1c-0.33 1.2-0.66 2.39-1 3.62-1.46 6.41-1.17 12.8-1 19.4-0.99-0.33-1.98-0.66-3-1-2.29-6.05-1.44-13.2 1-19 0.64-1.35 1.29-2.69 2-4z" fill="#4BA2F2"/>
<path transform="translate(853,727)" d="m0 0c2.48 0.99 2.48 0.99 5 2v2l2 1v3c-6.75 2.12-6.75 2.12-9 1-0.62-3.06-0.62-3.06-1-6h3v-3z" fill="#4DA4F6"/>
<path transform="translate(928,547)" d="m0 0c2 1 2 1 2.81 2.89 0.65 2.44 1.13 4.59 1.19 7.11-2.45 3.37-4.06 4.69-8 6-2.19-0.94-2.19-0.94-4-2 2.79-2.88 5.38-5.19 9-7v-3h-2l1-4z" fill="#4B9EF5"/>
<path transform="translate(867,719)" d="m0 0 7 2v2h-7v5h-3c-0.67-1.33-1.33-2.67-2-4-0.99 0.33-1.98 0.66-3 1l-1-3c4.46-0.5 4.46-0.5 9-1v-2z" fill="#4898EF"/>
<path transform="translate(974,775)" d="m0 0h5l1 3 2 1c-0.99 1.49-0.99 1.49-2 3l-2-3-2 4c-3 0-3 0-5.69-2.5-0.76-0.83-1.52-1.65-2.31-2.5 3-1 3-1 5-1l1-2z" fill="#4B9EF5"/>
<path transform="translate(1057,392)" d="m0 0 4 2v5c-2.81 1.56-2.81 1.56-6 3-0.99-0.33-1.98-0.66-3-1v-3l-2-1c1-1 1-1 3.56-1.06 1.21 0.03 1.21 0.03 2.44 0.06l1-4z" fill="#4DA5F6"/>
<path transform="translate(1016,1103)" d="m0 0 2 1v2l5 1-1 5c-0.35-0.47-0.7-0.95-1.06-1.44-2.78-2.24-5.45-2.23-8.94-2.56v4h-2l-1 2c-0.99-0.33-1.98-0.66-3-1 0.64-0.23 1.28-0.45 1.94-0.69 2.32-1.15 2.32-1.15 2.68-3.81 0.19-1.24 0.19-1.24 0.38-2.5l2-2v2l3-3z" fill="#1B477E"/>
<path transform="translate(1039 405)" d="m0 0c0.56 0.23 1.11 0.45 1.69 0.69l-1 6-2-1-2 2c-3.13-0.38-3.13-0.38-6-1 1.61-4.25 4.51-7.34 9.31-6.69z" fill="#4CA2F6"/>
<path transform="translate(1120,1043)" d="m0 0c1.12 1.69 1.12 1.69 2 4-0.75 2.69-0.75 2.69-2 5-0.99 0.49-0.99 0.49-2 1-0.46 1.73-0.46 1.73-0.94 3.5-0.52 1.73-0.52 1.73-1.06 3.5-0.99 0.33-1.98 0.66-3 1 0-3.2 0.22-5.89 1-9 1.31-1.03 2.65-2.03 4-3 0.73-2.56 0.73-2.56 1-5l1-1z" fill="#1C4880"/>
<path transform="translate(655,1036)" d="m0 0c1.12 3.3 0.9 5.05-0.44 8.25-0.28 0.71-0.57 1.41-0.87 2.14-0.23 0.53-0.45 1.06-0.69 1.61h-3c-2.12-5.62-2.12-5.62-1-9l-2-1h7l1-2z" fill="#4DA4F6"/>
<path transform="translate(987,448)" d="m0 0h11l1 2c-3.91 2.92-7.33 5.44-12 7v-9z" fill="#4A9CF3"/>
<path transform="translate(627,1009)" d="m0 0h2c1.02 3.05 1.01 3.99 0.44 7.01-0.14 0.76-0.28 1.52-0.42 2.3-0.15 0.78-0.3 1.57-0.46 2.38-0.15 0.79-0.29 1.59-0.44 2.41-0.37 1.97-0.74 3.94-1.12 5.9l-1-2h-3c0.77-3.96 1.65-7.88 2.56-11.8 0.41-1.74 0.41-1.74 0.82-3.52 0.2-0.88 0.41-1.76 0.62-2.67z" fill="#3D90E1"/>
<path transform="translate(779,568)" d="m0 0c2.48 0.99 2.48 0.99 5 2-0.62 3.38-0.62 3.38-2 7-3.12 1.44-3.12 1.44-6 2v-4h2c-0.31-1.18-0.31-1.18-0.62-2.38-0.13-0.86-0.25-1.73-0.38-2.62l2-2z" fill="#4B9CF5"/>
<path transform="translate(1062,488)" d="m0 0c2.42 3.63 2.21 5.38 2.12 9.69-0.01 1.18-0.03 2.36-0.05 3.57-0.03 1.36-0.03 1.36-0.07 2.74l-4 1v-6h2l-2-4h-3v-2h3l2-5z" fill="#4B9CF5"/>
<path transform="translate(681,1067)" d="m0 0h2l1 3h-2v13c-3-3-3-3-3.36-5.63 0.01-0.97 0.03-1.94 0.05-2.93 0-0.97 0.01-1.94 0.01-2.94 0.3-2.5 0.3-2.5 2.3-4.5z" fill="#1B4981"/>
<path transform="translate(1074,1045)" d="m0 0 1 4h-2v3h2v4h-2v8h-2c-0.08-2.6-0.14-5.21-0.19-7.81-0.04-1.11-0.04-1.11-0.07-2.24-0.08-5.5-0.08-5.5 1.77-7.96 0.49-0.33 0.98-0.65 1.49-0.99z" fill="#3587D6"/>
<path transform="translate(960,775)" d="m0 0c1.5 1.38 1.5 1.38 3 3v2c1.98-0.33 3.96-0.66 6-1v3l1 3c-4.15-0.47-7.04-0.93-10-4-0.81-2.62-0.81-2.62-1-5l1-1z" fill="#4A9BF3"/>
<path transform="translate(882,778)" d="m0 0 4 1c-0.48 4.31-1.75 6.17-5 9l-2-2h2v-3h-5l1-2h4l1-3z" fill="#4B9EF5"/>
<path transform="translate(950,754)" d="m0 0c1.62 2 1.62 2 3 4l-1 2 4 2-1 2c-3.32 1.11-4.68 0.85-8 0l-2-1c0.99-0.68 0.99-0.68 2-1.38 0.66-0.53 1.32-1.07 2-1.62v-2-2c-0.99-0.33-1.98-0.66-3-1 2-1 2-1 4-1z" fill="#4EA6F7"/>
<path transform="translate(915,491)" d="m0 0h5v2l4 1c-3.67 1.96-6.87 3.39-11 4l-2-3 3-2 1-2z" fill="#4CA0F5"/>
<path transform="translate(678 1114)" d="m0 0c1.24 0.02 1.24 0.02 2.5 0.04 0.82 0 1.65 0.01 2.5 0.02 0.64 0.01 1.28 0.03 1.93 0.04l1 6-4-2v-2h-4v2c-3 2-3 2-5.18 1.62-0.6-0.2-1.2-0.41-1.82-0.62h2c0.47-0.96 0.47-0.96 0.94-1.94 1.57-3.04 1.57-3.04 4.13-3.16z" fill="#1C4880"/>
<path transform="translate(822,1061)" d="m0 0c1.49 0.99 1.49 0.99 3 2 0.29 2.38 0.29 2.38 0.19 5.12-0.03 0.92-0.06 1.83-0.08 2.76-0.04 0.7-0.07 1.4-0.11 2.12l2-1 1 3h-3l1 4c-0.99 0.33-1.98 0.66-3 1-0.84-4.35-1.11-8.44-1.06-12.9 0.01-1.15 0.02-2.3 0.02-3.49 0.02-0.87 0.03-1.73 0.04-2.63zm1 14 1 3z" fill="#1B4C87"/>
<path transform="translate(886,761)" d="m0 0c2.01 0.29 4.01 0.62 6 1l-1 2h-4v2h3v5c0.99 0.33 1.98 0.66 3 1-1 1-1 1-3.56 1.06-0.81-0.02-1.61-0.04-2.44-0.06l1-3c-1.06-1.1-1.06-1.1-2.62-2.31-0.46-0.56-0.91-1.12-1.38-1.69 0.25-2.14 0.46-3.46 2-5z" fill="#4B9CF5"/>
<path transform="translate(682 654)" d="m0 0c2.94 0.69 2.94 0.69 4.94 1.69v2c-3.4 2.09-6.06 2.18-10 2l-1-4c3-2 3-2 6.06-1.69z" fill="#4DA5F6"/>
<path transform="translate(1022,674)" d="m0 0 4 2v2c-2 2-2 2-4 3-0.38-1.99-0.71-3.99-1-6l1-1zm-4 1c2.22 2.22 2.93 4.08 4 7l-4 1-2-7 2-1z" fill="#4EA6F7"/>
<path transform="translate(936,479)" d="m0 0h3v2l5 1c-2.65 2.65-5.56 3.6-9 5l-4-3 2-4 1 3h4v-3l-2-1z" fill="#499AF3"/>
<path transform="translate(873,763)" d="m0 0c0.99 0.33 1.98 0.66 3 1v2h2v-2c3 1 3 1 5 4-0.78 0.45-1.57 0.91-2.38 1.38-2.66 1.5-2.66 1.5-4.62 3.62v-5l-4-2 1-3z" fill="#489AF1"/>
<path transform="translate(1147,1081)" d="m0 0c2.5 1.56 2.5 1.56 5 4 0.31 3.75 0.31 3.75 0 7-1.88-0.5-1.88-0.5-4-2-1.06-2.68-1.5-5.13-2-8l1-1z" fill="#4DA4F6"/>
<path transform="translate(704 1034)" d="m0 0c1.62 1.31 1.62 1.31 2.62 4.31-1.62 0.08-3.24 0.14-4.87 0.19-0.9 0.03-1.81 0.07-2.74 0.11-1.18-0.15-1.18-0.15-2.39-0.3-0.65-0.99-1.32-1.98-2-3 6.34-2.19 6.34-2.19 9.38-1.31z" fill="#4CA1F6"/>
<path transform="translate(814,660)" d="m0 0c8.35 0.35 8.35 0.35 11.1 3.06 0.31 0.64 0.62 1.28 0.94 1.94h-2l-1 2-6-3v-2h-3v-2z" fill="#4B9CF5"/>
<path transform="translate(922,1057)" d="m0 0 4 1-6 12h-2l1-8h2l1-5z" fill="#3D8FE1"/>
<path transform="translate(872,1059)" d="m0 0 2 6c-1.94-0.38-1.94-0.38-4-1l-1-2h-2l-1 2h-2v-5c3.29-1.1 4.71-0.8 8 0z" fill="#1B477F"/>
<path transform="translate(925,484)" d="m0 0c1.88 0.12 1.88 0.12 4 1 1.75 2.56 1.75 2.56 3 5-3.47 1.49-3.47 1.49-7 3v-3c-0.99-0.33-1.98-0.66-3-1l5-1-3-3 1-1z" fill="#4B9CF5"/>
<path transform="translate(805,817)" d="m0 0 2 1v1l3-2 3 6h-3l-2 2h-3c-0.8-3.29-1.1-4.71 0-8z" fill="#4DA5F6"/>
<path transform="translate(829,756)" d="m0 0c2 2 2 2 2 5l1 2h-8c0.25-2.38 0.25-2.38 1-5 2.06-1.31 2.06-1.31 4-2z" fill="#4795E9"/>
<path transform="translate(874,1117)" d="m0 0c0.74 0.62 1.49 1.24 2.25 1.88 2.24 1.72 4.19 2.98 6.75 4.12l-1 2c-4.31-0.48-6.17-1.75-9-5l1-3z" fill="#1B4880"/>
<path transform="translate(624,1078)" d="m0 0h3v4l2 1h-3v5h-3c-0.12-7.75-0.12-7.75 1-10z" fill="#1B4A84"/>
<path transform="translate(933,1043)" d="m0 0c0.99 0.33 1.98 0.66 3 1l-1 2h2l1-2v3c-1.18 0.12-1.18 0.12-2.38 0.25-2.77 0.48-2.77 0.48-3.93 2.81-0.34 0.96-0.34 0.96-0.69 1.94l-3-2v-2c0.99-0.33 1.98-0.66 3-1 1.21-2 1.21-2 2-4z" fill="#3A88DA"/>
<path transform="translate(623,1094)" d="m0 0 1 3-2 2-1-3 2-2zm-5 4 2 1v4c-0.64 0.1-1.28 0.21-1.94 0.31-0.68 0.23-1.36 0.46-2.06 0.69l-1 3-2-3c0.64-0.43 1.28-0.87 1.94-1.31 2.33-1.6 2.33-1.6 3.06-4.69z" fill="#3081CD"/>
<path transform="translate(555,1017)" d="m0 0c1.49 0.99 1.49 0.99 3 2v3l6-3c-0.69 1.94-0.69 1.94-2 4-3.29 1.1-4.66 1.11-8 0l1-6z" fill="#1C4880"/>
<path transform="translate(835,732)" d="m0 0 4 1-2 2v2h-2l1 4h-4v-7h3v-2z" fill="#4CA0F5"/>
<path transform="translate(663,621)" d="m0 0v3c-0.99 0.5-0.99 0.5-2 1-1.13 2.02-1.13 2.02-2 4v-3l-2 2c-2.12-0.38-2.12-0.38-4-1 5.6-6 5.6-6 10-6z" fill="#4695E8"/>
<path transform="translate(920,619)" d="m0 0c2.87 0.57 3.86 0.86 6 3h-2v2l5-1c-2 2-2 2-5.62 2.12-1.12-0.04-2.23-0.08-3.38-0.12v-2l-2-1h2v-3z" fill="#4B9CF5"/>
<path transform="translate(742,1033)" d="m0 0c5.5-0.37 5.5-0.37 7.88 1.38 1.12 1.62 1.12 1.62 1.12 3.62-3.63-0.66-7.26-1.32-11-2l2-1v-2z" fill="#4CA1F6"/>
<path transform="translate(683,953)" d="m0 0c1.49 0.99 1.49 0.99 3 2 0.29 2.16 0.29 2.16 0.19 4.62-0.03 0.82-0.06 1.64-0.08 2.48-0.04 0.63-0.07 1.25-0.11 1.9-0.99 0.5-0.99 0.5-2 1-0.36-1.62-0.71-3.25-1.06-4.88-0.2-0.9-0.4-1.8-0.6-2.74-0.34-2.38-0.34-2.38 0.66-4.38z" fill="#4CA1F6"/>
<path transform="translate(1020,652)" d="m0 0h5l1 5h-4l-1 2-2-1 1-6z" fill="#4B9EF5"/>
<path transform="translate(803,804)" d="m0 0 2 1v8h-2l-1 2c-0.14-0.78-0.29-1.57-0.44-2.38-0.44-2.58-0.44-2.58-1.56-4.62l1-2h2v-2z" fill="#4DA4F6"/>
<path transform="translate(1008,1050)" d="m0 0c1.49 0.99 1.49 0.99 3 2 0.19 2.62 0.19 2.62 0 5h-1l-1 10h-1c-0.19-2.46-0.38-4.92-0.56-7.38-0.06-0.69-0.11-1.39-0.17-2.11-0.38-5.28-0.38-5.28 0.73-7.51z" fill="#4CA1F6"/>
<path transform="translate(950,754)" d="m0 0c5.66 1.48 5.66 1.48 7.38 4.12 0.3 0.93 0.3 0.93 0.62 1.88l-3 2c-3.66-2.44-3.65-3.96-5-8z" fill="#4B9CF5"/>
<path transform="translate(894,745)" d="m0 0 8 1 1 3c-4.29 1.26-6.88 0.63-11-1l2-3z" fill="#4B9CF5"/>
<path transform="translate(488,992)" d="m0 0h4c-0.75 2.94-0.75 2.94-2 6-2.12 0.88-2.12 0.88-4 1-0.12-2.38-0.12-2.38 0-5l2-2z" fill="#1B4A83"/>
<path transform="translate(524,957)" d="m0 0c2.12 0.38 2.12 0.38 4 1v2c0.99 0.33 1.98 0.66 3 1h-17v-1c1.28-0.12 2.56-0.25 3.88-0.38 3.47-0.31 3.47-0.31 6.12-2.62z" fill="#469AED"/>
<path transform="translate(1050,485)" d="m0 0 2 1v9h-3c-0.03-1.48-0.05-2.96-0.06-4.44-0.01-0.82-0.03-1.64-0.04-2.49 0.1-2.07 0.1-2.07 1.1-3.07z" fill="#489BF0"/>
<path transform="translate(952,1101)" d="m0 0 4 2h-2l-2 5-3-3c0.99-1.32 1.98-2.64 3-4zm-5 3c0.99 1.48 0.99 1.48 2 3-0.99 0.49-0.99 0.49-2 1v-4z" fill="#3183D1"/>
<path transform="translate(909,1091)" d="m0 0 2 1c0.12 5.75 0.12 5.75-1 8l-4-1c0.99-2.64 1.98-5.28 3-8z" fill="#4EA6F7"/>
<path transform="translate(938 749)" d="m0 0c0.72 0.29 1.44 0.58 2.18 0.88 0.72 0.29 1.45 0.57 2.2 0.87 0.55 0.23 1.1 0.46 1.67 0.69l-1 3c-1.98-0.66-3.96-1.32-6-2v-2c-0.99-0.33-1.98-0.66-3-1 2-1 2-1 3.95-0.44z" fill="#4C9FF5"/>
<path transform="translate(735,1125)" d="m0 0h14v1h-14v-1z" fill="#162435"/>
<path transform="translate(741,1085)" d="m0 0h1v5h-1v-5z" fill="#111D2A"/>
<path transform="translate(469,1081)" d="m0 0h1v5h-1v-5z" fill="#162435"/>
<path transform="translate(1029,1045)" d="m0 0h1v5h-1v-5z" fill="#162435"/>
<path transform="translate(887,1126)" d="m0 0c0.99 0.33 1.98 0.66 3 1h-3v-1z" fill="#1A3F6D"/>
<path transform="translate(1082,422)" d="m0 0h2v2h-2v-2z" fill="#3080D0"/>
<path transform="translate(1068,1089)" d="m0 0c0.99 0.49 0.99 0.49 2 1-0.99 0.49-0.99 0.49-2 1v-2z" fill="#1664AC"/>
<path transform="translate(1056,1123)" d="m0 0 2 1z" fill="#162435"/>
<path transform="translate(964,1111)" d="m0 0 2 1z" fill="#162435"/>
<path transform="translate(792,1059)" d="m0 0 2 1z" fill="#162435"/>
<path transform="translate(513,1045)" d="m0 0 2 1z" fill="#19365A"/>
<path transform="translate(1116,965)" d="m0 0 2 1z" fill="#162435"/>
<path transform="translate(660,965)" d="m0 0 2 1z" fill="#162435"/>
<path transform="translate(744,699)" d="m0 0 2 1z" fill="#0B121B"/>
</svg>
